<svg xmlns="http://www.w3.org/2000/svg" xmlns:xlink="http://www.w3.org/1999/xlink" width="500" zoomAndPan="magnify" viewBox="0 0 375 374.999991" height="500" preserveAspectRatio="xMidYMid meet" version="1.0"><defs><g/><clipPath id="c4815fa4f7"><path d="M 131 129.089844 L 210 129.089844 L 210 194.339844 L 131 194.339844 Z M 131 129.089844 " clip-rule="nonzero"/></clipPath><clipPath id="1a691ca9a8"><path d="M 207 129.089844 L 244 129.089844 L 244 194 L 207 194 Z M 207 129.089844 " clip-rule="nonzero"/></clipPath><clipPath id="e3debd17d0"><path d="M 239 138 L 267.753906 138 L 267.753906 186 L 239 186 Z M 239 138 " clip-rule="nonzero"/></clipPath><clipPath id="1746dde127"><path d="M 107.253906 138 L 135 138 L 135 186 L 107.253906 186 Z M 107.253906 138 " clip-rule="nonzero"/></clipPath></defs><g clip-path="url(#c4815fa4f7)"><path fill="#ffffff" d="M 207.8125 170.117188 C 211.554688 166.046875 207.308594 145.105469 201.464844 155.820312 C 201.488281 156.078125 201.964844 156.160156 202.15625 156.285156 C 202.683594 156.546875 203.125 156.933594 203.476562 157.441406 C 203.925781 158.101562 204.089844 158.933594 204.089844 159.726562 C 204.070312 159.960938 203.824219 159.972656 203.640625 159.988281 C 193.054688 160.265625 182.46875 160.195312 171.882812 160.066406 C 171.324219 160.132812 171.347656 159.652344 171.359375 159.222656 C 171.355469 157.378906 172.113281 156.890625 173.648438 156.203125 C 173.515625 155.695312 172.203125 154.128906 171.933594 153.738281 C 171.644531 153.414062 171.300781 153.097656 170.875 152.984375 C 165.171875 152.292969 164.265625 167.605469 167.449219 170.710938 C 162.933594 168.945312 160.648438 163.722656 161.234375 159.058594 C 161.269531 158.144531 161.886719 157.476562 162.34375 156.742188 C 163.75 154.601562 165.0625 152.390625 166.269531 150.125 C 166.441406 149.734375 166.722656 149.355469 166.746094 148.917969 C 166.601562 144.902344 165.699219 138.261719 161.957031 136.074219 C 161.753906 136.011719 161.355469 135.800781 161.78125 135.679688 C 163.132812 135.460938 164.363281 136.605469 164.960938 137.734375 C 165.296875 138.425781 165.566406 139.152344 165.824219 139.878906 C 165.867188 139.964844 165.890625 140.082031 165.980469 140.128906 C 165.632812 136.59375 163.964844 129.453125 159.515625 129.445312 C 156.632812 129.320312 152.449219 129.308594 150.269531 131.449219 C 150.054688 131.636719 149.925781 132.117188 149.632812 132.136719 C 146.199219 131.21875 141.835938 131.3125 138.65625 132.960938 C 129.78125 142.125 130.617188 166.050781 132.925781 178.0625 C 133.953125 182.554688 134.808594 187.519531 137.742188 191.199219 C 140.898438 193.757812 145.820312 193.296875 149.527344 192.347656 C 150.25 191.976562 150.078125 192.726562 151.363281 193.226562 C 153.929688 194.261719 156.773438 194.230469 159.492188 194.070312 C 163.464844 193.984375 164.570312 189.25 165.542969 186.121094 C 165.640625 185.835938 166.140625 183.226562 165.632812 184.78125 C 164.996094 187.175781 163.042969 190.675781 160.125 189.160156 C 160.007812 189.078125 159.980469 188.910156 160.148438 188.902344 C 161.488281 188.972656 162.769531 188.347656 163.445312 187.167969 C 165.042969 184.507812 166.003906 181.425781 166.375 178.347656 C 166.453125 177.910156 166.460938 177.464844 166.5 177.023438 C 166.519531 176.628906 166.285156 176.28125 166.113281 175.945312 C 165.503906 174.890625 164.832031 173.863281 164.300781 172.765625 C 164.277344 172.664062 164.398438 172.59375 164.488281 172.617188 C 164.914062 172.671875 165.339844 172.640625 165.761719 172.589844 C 166.597656 172.449219 167.363281 171.886719 167.792969 171.15625 C 167.910156 170.695312 168.40625 171.003906 168.726562 171.023438 C 171.375 171.554688 171.628906 170.8125 173.164062 168.914062 C 173.25 168.824219 173.273438 168.660156 173.171875 168.570312 C 172.417969 167.992188 171.550781 167.59375 170.792969 167.015625 C 170.640625 166.863281 169.214844 166.027344 170.097656 166.011719 C 173.851562 166.140625 182.421875 166.933594 182.964844 166.992188 C 183.125 167.015625 183.292969 167.066406 183.429688 167.164062 C 181.175781 167.253906 178.640625 166.996094 176.445312 167.191406 C 177.785156 167.6875 179.335938 167.722656 180.765625 167.9375 C 186.640625 168.699219 192.683594 168.597656 198.460938 167.207031 C 200.269531 166.726562 198.265625 166.855469 197.695312 166.882812 C 196.257812 166.957031 192.839844 167 192.632812 166.878906 C 196.261719 166.257812 199.96875 166.054688 203.644531 165.925781 C 203.882812 165.941406 204.726562 165.777344 204.574219 166.210938 C 203.804688 167.636719 201.300781 168.34375 201.707031 168.761719 C 202.429688 169.628906 203.035156 170.910156 204.273438 171.070312 C 205.296875 171.113281 207.207031 171.035156 207.8125 170.117188 Z M 159.777344 142.878906 C 161.949219 137.875 163.390625 141.421875 164.320312 144.613281 C 164.339844 144.875 164.035156 144.921875 163.859375 145.015625 C 160.328125 146.730469 159.484375 152.363281 158.996094 155.925781 C 158.949219 156.097656 158.996094 156.875 158.863281 156.882812 C 157.707031 152.5625 158.234375 147.136719 159.777344 142.878906 Z M 140.121094 147.277344 C 139.921875 148.902344 139.648438 150.519531 139.527344 152.152344 C 139.378906 153.890625 139.449219 153.316406 137.945312 153.59375 C 136.679688 153.75 135.414062 153.917969 134.15625 154.109375 C 133.703125 154.113281 133.195312 154.386719 132.765625 154.21875 C 132.621094 154.042969 132.714844 153.816406 132.710938 153.601562 C 132.949219 151.605469 133.105469 149.566406 133.574219 147.605469 C 133.710938 147.394531 134 147.40625 134.222656 147.375 C 134.789062 147.34375 135.347656 147.230469 135.910156 147.1875 C 136.730469 147.078125 137.554688 147.039062 138.375 146.949219 C 138.890625 146.886719 139.410156 146.855469 139.925781 146.859375 C 140.136719 146.875 140.144531 147.117188 140.121094 147.277344 Z M 148.066406 133.886719 C 148.253906 133.773438 148.433594 133.644531 148.636719 133.574219 C 148.738281 133.554688 148.820312 133.664062 148.78125 133.765625 C 142.074219 148.910156 142.914062 175.625 149.125 190.875 C 137.585938 185.367188 137.78125 141.140625 148.066406 133.886719 Z M 153.152344 153.117188 C 153.113281 153.542969 152.347656 153.285156 152.070312 153.273438 C 150.101562 153.042969 148.128906 152.859375 146.152344 152.691406 C 145.875 152.683594 145.570312 152.632812 145.605469 152.277344 C 145.695312 150.589844 145.886719 148.90625 146.160156 147.238281 C 146.542969 144.511719 146.042969 145.355469 148.636719 145.304688 C 149.835938 145.304688 150.75 145.449219 151.886719 145.476562 C 152.476562 145.492188 153.0625 145.515625 153.648438 145.617188 C 153.761719 145.636719 153.855469 145.761719 153.847656 145.890625 C 153.539062 148.292969 153.34375 150.703125 153.152344 153.117188 Z M 154.808594 165.828125 C 153.4375 156.558594 153.972656 141.585938 158.972656 133.414062 C 159.082031 133.308594 159.121094 133.507812 159.09375 133.585938 C 157.433594 137.738281 156.921875 142.238281 156.15625 146.617188 C 155.640625 149.515625 155.257812 152.429688 155.007812 155.367188 C 154.660156 158.839844 154.785156 162.367188 154.808594 165.828125 Z M 160.085938 190.539062 C 160.070312 191.128906 159.015625 189.898438 158.886719 189.75 C 156.195312 187.652344 154.390625 174.625 155.429688 178.277344 C 156.457031 182.511719 157.648438 186.878906 160.085938 190.539062 Z M 160.347656 183.207031 C 158.363281 181.273438 158.082031 178.1875 157.660156 175.578125 C 157.355469 174.667969 157.167969 165.855469 158.082031 170.945312 C 158.785156 174.382812 160.136719 178.308594 163.867188 179.371094 C 164 179.410156 164.160156 179.535156 164.144531 179.683594 C 163.914062 181.402344 162.480469 184.574219 160.347656 183.207031 Z M 160.347656 183.207031 " fill-opacity="1" fill-rule="nonzero"/></g><g clip-path="url(#1a691ca9a8)"><path fill="#ffffff" d="M 239.648438 138.59375 C 237.875 132.207031 233.574219 130.980469 227.460938 131.449219 C 227.066406 131.53125 225.613281 131.726562 225.289062 131.808594 C 225.167969 131.84375 225.058594 131.792969 224.972656 131.6875 C 223.371094 129.355469 220.046875 129.375 217.492188 129.148438 C 216.167969 129.175781 214.390625 128.957031 213.242188 129.652344 C 210.53125 131.582031 208.925781 137.0625 208.796875 140.265625 C 209.5625 138.328125 209.871094 136.230469 212.246094 135.617188 C 212.523438 135.527344 213.625 135.511719 212.878906 135.902344 C 209.433594 137.90625 208.820312 142.777344 208.179688 146.382812 C 208.167969 147.257812 207.914062 148.167969 208.105469 149.03125 C 209.578125 152.324219 211.917969 155.167969 213.597656 158.335938 C 214.628906 163.226562 212.179688 168.53125 207.601562 170.65625 C 207.425781 170.800781 206.988281 170.914062 207.128906 171.207031 C 207.996094 172.40625 208.992188 172.683594 210.410156 172.609375 C 210.605469 172.628906 210.523438 172.867188 210.433594 172.964844 C 209.679688 173.941406 209.054688 175.03125 208.429688 176.097656 C 207.097656 178.367188 210.328125 188.914062 214.621094 188.757812 C 215.015625 188.949219 214.183594 189.140625 214.050781 189.179688 C 210.710938 189.9375 209.644531 186.09375 208.875 183.640625 C 209.566406 187.570312 210.84375 193.996094 216.3125 193.96875 C 219.121094 193.953125 222.4375 194.050781 224.71875 192.175781 C 224.902344 191.941406 225.199219 192 225.445312 192.082031 C 229.078125 193.019531 233.6875 193.136719 236.875 190.921875 C 238.679688 189.421875 239.964844 185.074219 240.648438 182.796875 C 244.378906 168.398438 244.402344 152.757812 239.648438 138.59375 Z M 213.234375 146.890625 C 212.621094 146.082031 211.894531 145.246094 210.941406 144.855469 C 210.792969 144.804688 210.578125 144.703125 210.613281 144.515625 C 210.898438 143.632812 211.949219 140.105469 213.027344 140.261719 C 216.976562 142.394531 217.144531 153 216.199219 156.917969 C 215.933594 157.125 215.980469 156.144531 215.949219 156.011719 C 215.609375 152.882812 215.011719 149.578125 213.234375 146.890625 Z M 214.34375 183.15625 C 212.171875 184.273438 210.992188 181.183594 210.667969 179.515625 C 210.65625 179.347656 210.785156 179.234375 210.925781 179.207031 C 211.296875 179.121094 211.652344 178.976562 212.007812 178.839844 C 215.992188 177.214844 216.25 172.738281 217.4375 169.191406 C 217.542969 169.160156 217.527344 169.359375 217.539062 169.429688 C 217.554688 170.164062 217.582031 170.890625 217.585938 171.621094 C 217.410156 175.207031 217.160156 180.640625 214.34375 183.15625 Z M 219.941406 177.34375 C 219.386719 181.441406 218.519531 187.957031 214.949219 190.542969 C 214.726562 190.628906 214.769531 190.394531 214.867188 190.277344 C 217.636719 186.402344 218.570312 181.484375 219.894531 177.046875 C 219.96875 177.125 219.933594 177.246094 219.941406 177.34375 Z M 220.785156 158.746094 C 220.667969 161.09375 220.675781 163.519531 220.144531 165.8125 C 220.332031 159.695312 220.0625 153.457031 218.90625 147.394531 C 218.050781 142.746094 217.605469 137.933594 215.871094 133.5 C 215.800781 133.375 215.601562 132.949219 215.925781 133.136719 C 220.207031 140.230469 220.828125 150.652344 220.785156 158.746094 Z M 224.527344 152.960938 C 221.140625 153.203125 221.988281 153.972656 221.660156 151.433594 C 221.550781 149.535156 221.304688 147.648438 221.0625 145.765625 C 221.046875 145.566406 221.246094 145.488281 221.414062 145.488281 C 223.246094 145.304688 225.085938 145.203125 226.925781 145.15625 C 227.375 145.144531 227.820312 145.128906 228.269531 145.082031 C 228.5 145.074219 228.558594 145.335938 228.582031 145.519531 C 228.941406 147.597656 229.191406 149.691406 229.402344 151.789062 C 229.429688 152.035156 229.515625 152.4375 229.175781 152.492188 C 227.652344 152.644531 226.027344 152.75 224.527344 152.960938 Z M 234.425781 163.367188 C 233.800781 172.425781 233.960938 183.84375 226.707031 190.332031 C 225.25 191.242188 225.894531 190.460938 226.296875 189.527344 C 228.667969 183.863281 229.605469 177.722656 230.269531 171.660156 C 231.328125 158.902344 231.167969 145.257812 226.113281 133.371094 C 233.421875 137.40625 234.488281 155.625 234.425781 163.367188 Z M 236.136719 153.296875 C 235.886719 153.25 235.472656 153.320312 235.382812 153.015625 C 235.171875 151.289062 235.070312 149.542969 234.726562 147.835938 C 234.664062 147.527344 234.636719 147.21875 234.585938 146.910156 C 234.574219 146.8125 234.660156 146.703125 234.75 146.703125 C 236.484375 146.78125 238.230469 146.992188 239.964844 147.128906 C 241.203125 147.21875 240.996094 147.265625 241.230469 148.421875 C 241.515625 150.058594 241.753906 151.703125 241.9375 153.355469 C 241.9375 153.355469 241.9375 153.355469 241.933594 153.355469 C 241.929688 153.566406 242.085938 154.078125 241.746094 154.058594 C 241.210938 153.960938 237.476562 153.382812 236.136719 153.296875 Z M 236.136719 153.296875 " fill-opacity="1" fill-rule="nonzero"/></g><g clip-path="url(#e3debd17d0)"><path fill="#ffffff" d="M 267.710938 160.183594 C 267.5 158.609375 266.425781 157.167969 264.882812 156.714844 C 263.40625 156.433594 261.863281 156.574219 260.359375 156.445312 C 257.816406 156.246094 255.265625 156.109375 252.71875 155.925781 C 251.414062 155.820312 251.675781 155.976562 251.417969 154.726562 C 250.726562 150.015625 249.617188 145.257812 247.457031 140.992188 C 246.558594 139.449219 244.039062 139.03125 242.425781 138.640625 C 241.84375 138.519531 241.253906 138.453125 240.671875 138.351562 C 240.445312 138.316406 239.78125 138.160156 239.910156 138.488281 C 247.453125 152.636719 247.183594 170.738281 240.390625 185.089844 C 240.464844 185.15625 240.546875 185.1875 240.648438 185.167969 C 242.902344 184.886719 245.195312 184.367188 247.179688 183.222656 C 249.996094 179.941406 250.960938 172.277344 251.660156 167.933594 C 251.769531 167.605469 252.515625 167.808594 252.792969 167.796875 C 253.242188 167.84375 253.691406 167.867188 254.136719 167.882812 C 257.066406 168.035156 259.941406 168.335938 262.871094 168.550781 C 266.730469 168.910156 267.964844 163.152344 267.710938 160.183594 Z M 246.453125 154.355469 C 246.160156 153.125 246.128906 151.832031 245.828125 150.597656 C 245.664062 150.113281 246.070312 150.164062 246.40625 150.230469 C 247.570312 150.402344 248.742188 150.574219 249.914062 150.679688 C 250.472656 150.753906 250.785156 154.515625 250.921875 155.199219 C 250.832031 155.445312 246.621094 154.722656 246.453125 154.355469 Z M 264.460938 166.75 C 263.632812 167.527344 259.902344 166.964844 258.660156 166.882812 C 256.902344 166.675781 255.128906 166.492188 253.398438 166.144531 C 253.335938 166.128906 253.277344 166.054688 253.40625 166.054688 C 255.011719 165.988281 256.617188 166.007812 258.222656 165.992188 C 258.222656 165.996094 258.222656 165.996094 258.222656 165.996094 C 258.832031 166.023438 264.925781 165.917969 264.460938 166.75 Z M 266.097656 160.972656 C 263.679688 160.066406 254.203125 160.277344 252.082031 160.242188 C 251.710938 160.113281 251.878906 159.429688 251.820312 159.109375 C 251.820312 159.109375 251.820312 159.109375 251.824219 159.109375 C 251.847656 158.761719 251.570312 158.03125 252.132812 158.046875 C 254.984375 157.992188 257.839844 157.980469 260.695312 157.902344 C 263.933594 157.816406 266.589844 157.226562 266.589844 161.019531 C 266.492188 161.25 266.246094 161.015625 266.097656 160.972656 Z M 266.097656 160.972656 " fill-opacity="1" fill-rule="nonzero"/></g><g clip-path="url(#1746dde127)"><path fill="#ffffff" d="M 134.222656 139.5625 C 134.390625 139.191406 134.804688 138.632812 134.457031 138.589844 C 132.359375 138.808594 130.164062 139.183594 128.289062 140.195312 C 127.09375 140.945312 126.71875 142.414062 126.183594 143.636719 C 124.796875 147.214844 123.957031 150.859375 123.453125 154.710938 C 123.320312 155.128906 123.527344 155.949219 122.886719 155.949219 C 119.214844 156.214844 115.542969 156.738281 111.859375 156.792969 C 107.285156 156.304688 106.46875 161.773438 107.890625 165.066406 C 108.8125 167.527344 110.191406 169.453125 113.097656 168.765625 C 116.226562 168.441406 119.355469 168.164062 122.492188 167.941406 C 122.710938 167.925781 123.03125 167.84375 123.113281 168.125 C 123.839844 173.039062 124.664062 178.128906 126.859375 182.582031 C 127.371094 183.539062 128.390625 183.910156 129.339844 184.265625 C 130.660156 184.753906 132.03125 185.042969 133.421875 185.222656 C 134.46875 185.320312 134.644531 185.457031 134.058594 184.363281 C 127.710938 170.535156 127.578125 153.308594 134.222656 139.5625 Z M 121.539062 166.3125 C 118.8125 166.84375 116.03125 167.160156 113.257812 167.375 C 112.601562 167.429688 111.9375 167.414062 111.285156 167.292969 C 107.863281 166.332031 116.554688 166.128906 117.171875 166.199219 C 117.171875 166.199219 117.171875 166.203125 117.171875 166.203125 C 118.648438 166.242188 120.164062 166.0625 121.621094 166.222656 C 121.617188 166.265625 121.59375 166.296875 121.539062 166.3125 Z M 122.925781 160.066406 C 122.914062 160.53125 122.34375 160.363281 122.039062 160.398438 C 118.78125 160.414062 115.519531 160.390625 112.265625 160.546875 C 108.71875 160.578125 108.15625 162.441406 108.546875 160.207031 C 108.679688 158.875 109.292969 158.136719 110.679688 158.1875 C 112.664062 158.175781 116.628906 158.203125 116.628906 158.207031 C 118.679688 158.21875 120.738281 158.164062 122.789062 158.214844 C 122.898438 158.234375 122.992188 158.390625 122.980469 158.5 C 122.964844 159.023438 122.945312 159.546875 122.925781 160.066406 Z M 129 150.574219 C 128.804688 151.808594 128.59375 153.039062 128.449219 154.28125 C 128.410156 154.871094 127.445312 154.671875 127.023438 154.824219 C 126.371094 154.925781 125.714844 155.03125 125.070312 155.1875 C 124.78125 155.183594 123.871094 155.640625 123.871094 155.148438 C 124.058594 153.8125 124.214844 152.464844 124.539062 151.152344 C 124.605469 150.921875 124.871094 150.875 125.074219 150.835938 C 125.472656 150.796875 125.867188 150.699219 126.265625 150.652344 C 127.0625 150.574219 127.855469 150.402344 128.652344 150.328125 C 128.816406 150.296875 129.03125 150.371094 129 150.574219 Z M 129 150.574219 " fill-opacity="1" fill-rule="nonzero"/></g><path fill="#ffffff" d="M 174.949219 157.246094 C 183.09375 157.386719 191.441406 157.449219 199.492188 157.121094 C 192.582031 153.851562 184.199219 155.050781 176.898438 156.515625 C 176.664062 156.621094 174.472656 157.042969 174.949219 157.246094 Z M 174.949219 157.246094 " fill-opacity="1" fill-rule="nonzero"/><g fill="#ffffff" fill-opacity="1"><g transform="translate(62.700602, 234.666751)"><g><path d="M 19.703125 -28.828125 C 22.953125 -28.660156 25.4375 -27.835938 27.15625 -26.359375 C 28.875 -24.890625 29.441406 -22.8125 28.859375 -20.125 L 28.734375 -19.625 L 20.203125 -19.625 L 20.25 -19.796875 C 20.351562 -20.117188 20.382812 -20.429688 20.34375 -20.734375 C 20.300781 -21.035156 20.203125 -21.3125 20.046875 -21.5625 C 19.898438 -21.8125 19.675781 -22.023438 19.375 -22.203125 C 19.070312 -22.378906 18.703125 -22.507812 18.265625 -22.59375 Z M 14.890625 -28.609375 L 13.078125 -20.828125 C 12.960938 -20.328125 13.101562 -19.898438 13.5 -19.546875 C 13.90625 -19.191406 14.46875 -18.914062 15.1875 -18.71875 C 15.914062 -18.53125 16.75 -18.320312 17.6875 -18.09375 C 18.625 -17.875 19.59375 -17.660156 20.59375 -17.453125 C 21.601562 -17.253906 22.550781 -16.941406 23.4375 -16.515625 C 24.332031 -16.085938 25.109375 -15.59375 25.765625 -15.03125 C 26.429688 -14.46875 26.898438 -13.703125 27.171875 -12.734375 C 27.441406 -11.773438 27.441406 -10.664062 27.171875 -9.40625 C 26.515625 -6.539062 25.175781 -4.3125 23.15625 -2.71875 C 21.132812 -1.125 18.625 -0.125 15.625 0.28125 L 17.53125 -7.921875 C 17.632812 -8.390625 17.488281 -8.796875 17.09375 -9.140625 C 16.695312 -9.484375 16.125 -9.75 15.375 -9.9375 C 14.632812 -10.125 13.789062 -10.328125 12.84375 -10.546875 C 11.894531 -10.773438 10.914062 -11.003906 9.90625 -11.234375 C 8.90625 -11.472656 7.957031 -11.8125 7.0625 -12.25 C 6.175781 -12.6875 5.410156 -13.21875 4.765625 -13.84375 C 4.117188 -14.476562 3.671875 -15.289062 3.421875 -16.28125 C 3.171875 -17.269531 3.195312 -18.441406 3.5 -19.796875 C 4.101562 -22.378906 5.421875 -24.390625 7.453125 -25.828125 C 9.492188 -27.273438 11.972656 -28.203125 14.890625 -28.609375 Z M 12.28125 -6.015625 L 10.796875 0.453125 C 9.566406 0.398438 8.457031 0.296875 7.46875 0.140625 C 6.476562 -0.00390625 5.539062 -0.242188 4.65625 -0.578125 C 3.78125 -0.910156 3.046875 -1.328125 2.453125 -1.828125 C 1.859375 -2.335938 1.363281 -2.957031 0.96875 -3.6875 C 0.570312 -4.414062 0.375 -5.265625 0.375 -6.234375 C 0.375 -7.210938 0.484375 -8.335938 0.703125 -9.609375 L 9.3125 -9.609375 C 9.070312 -8.703125 9.066406 -7.988281 9.296875 -7.46875 C 9.535156 -6.945312 9.882812 -6.585938 10.34375 -6.390625 C 10.8125 -6.203125 11.457031 -6.078125 12.28125 -6.015625 Z M 12.28125 -6.015625 "/></g></g></g><g fill="#ffffff" fill-opacity="1"><g transform="translate(92.466515, 234.666751)"><g><path d="M 15.46875 -28.375 L 8.953125 0 L -0.15625 0 L 6.359375 -28.375 Z M 18.6875 -21.53125 L 20.25 -28.375 L 22.265625 -28.375 C 24.023438 -28.375 25.507812 -27.96875 26.71875 -27.15625 C 27.9375 -26.34375 28.753906 -25.226562 29.171875 -23.8125 C 29.597656 -22.394531 29.609375 -20.804688 29.203125 -19.046875 L 29.078125 -18.515625 C 28.472656 -15.816406 27.117188 -13.582031 25.015625 -11.8125 C 22.910156 -10.039062 20.523438 -9.15625 17.859375 -9.15625 L 15.84375 -9.15625 L 17.40625 -15.921875 C 18.695312 -16.242188 19.507812 -17.125 19.84375 -18.5625 L 19.921875 -18.890625 C 20.253906 -20.316406 19.84375 -21.195312 18.6875 -21.53125 Z M 18.6875 -21.53125 "/></g></g></g><g fill="#ffffff" fill-opacity="1"><g transform="translate(122.232428, 234.666751)"><g><path d="M 7.953125 -0.28125 C 5.148438 -1.164062 3.21875 -2.773438 2.15625 -5.109375 C 1.101562 -7.453125 1.003906 -10.476562 1.859375 -14.1875 C 2.710938 -17.894531 4.207031 -20.914062 6.34375 -23.25 C 8.488281 -25.59375 11.171875 -27.203125 14.390625 -28.078125 Z M 17.765625 -21.984375 L 19.34375 -28.859375 L 20.53125 -28.859375 C 25.425781 -28.859375 28.914062 -27.609375 31 -25.109375 C 33.09375 -22.609375 33.585938 -18.96875 32.484375 -14.1875 C 31.390625 -9.40625 29.21875 -5.757812 25.96875 -3.25 C 22.726562 -0.75 18.660156 0.5 13.765625 0.5 C 13.222656 0.5 12.828125 0.484375 12.578125 0.453125 L 14.140625 -6.390625 C 14.640625 -6.335938 15.039062 -6.3125 15.34375 -6.3125 C 17.289062 -6.3125 18.914062 -6.898438 20.21875 -8.078125 C 21.53125 -9.265625 22.421875 -10.859375 22.890625 -12.859375 L 23.46875 -15.5 C 23.925781 -17.507812 23.773438 -19.101562 23.015625 -20.28125 C 22.265625 -21.46875 20.914062 -22.0625 18.96875 -22.0625 C 18.664062 -22.0625 18.265625 -22.035156 17.765625 -21.984375 Z M 17.765625 -21.984375 "/></g></g></g><g fill="#ffffff" fill-opacity="1"><g transform="translate(156.574541, 234.666751)"><g><path d="M 20.75 -17.421875 C 21.351562 -17.929688 21.742188 -18.554688 21.921875 -19.296875 C 22.097656 -20.035156 21.992188 -20.648438 21.609375 -21.140625 C 21.222656 -21.640625 20.675781 -21.890625 19.96875 -21.890625 L 17.359375 -21.890625 L 18.84375 -28.375 L 23.71875 -28.375 C 26.738281 -28.375 28.894531 -27.535156 30.1875 -25.859375 C 31.476562 -24.179688 31.847656 -22.117188 31.296875 -19.671875 C 30.890625 -17.941406 30.050781 -16.375 28.78125 -14.96875 C 27.519531 -13.5625 25.925781 -12.53125 24 -11.875 L 27.59375 0 L 17.359375 0 L 14.71875 -10.34375 L 16.171875 -16.65625 L 18.765625 -16.65625 C 19.484375 -16.65625 20.144531 -16.910156 20.75 -17.421875 Z M 7.546875 0 L -0.15625 0 L 6.359375 -28.375 L 14.0625 -28.375 Z M 7.546875 0 "/></g></g></g><g fill="#ffffff" fill-opacity="1"><g transform="translate(188.649173, 234.666751)"><g><path d="M 31.921875 -28.375 L 30.265625 -21.109375 L 25.765625 -21.109375 L 27.421875 -28.375 Z M 20.984375 -21.109375 L 16.125 0 L 7.015625 0 L 11.875 -21.109375 L 2.5625 -21.109375 L 4.203125 -28.375 L 22.640625 -28.375 Z M 20.984375 -21.109375 "/></g></g></g><g fill="#ffffff" fill-opacity="1"><g transform="translate(218.415086, 234.666751)"><g><path d="M 34.59375 -28.375 L 28.09375 0 L 20.125 0 L 14.890625 -8.25 L 18.109375 -22.265625 L 23.015625 -14.390625 L 26.234375 -28.375 Z M 11.390625 -13.765625 L 8.21875 0 L -0.15625 0 L 6.359375 -28.375 L 14.3125 -28.375 L 14.640625 -27.875 Z M 11.390625 -13.765625 "/></g></g></g><g fill="#ffffff" fill-opacity="1"><g transform="translate(252.7572, 234.666751)"><g><path d="M 8.953125 0 L -0.15625 0 L 6.359375 -28.375 L 15.46875 -28.375 Z M 13.734375 0 L 15.296875 -6.796875 L 26.234375 -6.796875 L 24.65625 0 Z M 20.25 -28.375 L 30.890625 -28.375 L 29.328125 -21.5625 L 18.6875 -21.5625 Z M 16.296875 -11.140625 L 17.78125 -17.640625 L 26.1875 -17.640625 L 24.703125 -11.140625 Z M 16.296875 -11.140625 "/></g></g></g><g fill="#ffffff" fill-opacity="1"><g transform="translate(282.523102, 234.666751)"><g><path d="M 31.921875 -28.375 L 30.265625 -21.109375 L 25.765625 -21.109375 L 27.421875 -28.375 Z M 20.984375 -21.109375 L 16.125 0 L 7.015625 0 L 11.875 -21.109375 L 2.5625 -21.109375 L 4.203125 -28.375 L 22.640625 -28.375 Z M 20.984375 -21.109375 "/></g></g></g><g fill="#ffffff" fill-opacity="1"><g transform="translate(96.335646, 252.909929)"><g><path d="M 3.140625 -3.421875 C 2.273438 -3.671875 1.644531 -3.972656 1.25 -4.328125 C 0.851562 -4.691406 0.65625 -5.144531 0.65625 -5.6875 C 0.65625 -6.28125 0.894531 -6.773438 1.375 -7.171875 C 1.863281 -7.566406 2.492188 -7.765625 3.265625 -7.765625 C 3.796875 -7.765625 4.265625 -7.660156 4.671875 -7.453125 C 5.085938 -7.253906 5.40625 -6.972656 5.625 -6.609375 C 5.851562 -6.253906 5.96875 -5.867188 5.96875 -5.453125 L 4.953125 -5.453125 C 4.953125 -5.910156 4.804688 -6.269531 4.515625 -6.53125 C 4.222656 -6.800781 3.804688 -6.9375 3.265625 -6.9375 C 2.765625 -6.9375 2.375 -6.828125 2.09375 -6.609375 C 1.820312 -6.390625 1.6875 -6.085938 1.6875 -5.703125 C 1.6875 -5.390625 1.816406 -5.125 2.078125 -4.90625 C 2.347656 -4.6875 2.800781 -4.488281 3.4375 -4.3125 C 4.070312 -4.132812 4.566406 -3.9375 4.921875 -3.71875 C 5.285156 -3.5 5.550781 -3.242188 5.71875 -2.953125 C 5.894531 -2.671875 5.984375 -2.335938 5.984375 -1.953125 C 5.984375 -1.328125 5.738281 -0.828125 5.25 -0.453125 C 4.769531 -0.078125 4.128906 0.109375 3.328125 0.109375 C 2.796875 0.109375 2.300781 0.0078125 1.84375 -0.1875 C 1.382812 -0.394531 1.03125 -0.671875 0.78125 -1.015625 C 0.539062 -1.367188 0.421875 -1.769531 0.421875 -2.21875 L 1.4375 -2.21875 C 1.4375 -1.757812 1.609375 -1.394531 1.953125 -1.125 C 2.296875 -0.851562 2.753906 -0.71875 3.328125 -0.71875 C 3.859375 -0.71875 4.265625 -0.828125 4.546875 -1.046875 C 4.828125 -1.265625 4.96875 -1.5625 4.96875 -1.9375 C 4.96875 -2.3125 4.835938 -2.597656 4.578125 -2.796875 C 4.316406 -3.003906 3.835938 -3.210938 3.140625 -3.421875 Z M 3.140625 -3.421875 "/></g></g></g><g fill="#ffffff" fill-opacity="1"><g transform="translate(108.202362, 252.909929)"><g><path d="M 1.90625 -3 L 1.90625 0 L 0.890625 0 L 0.890625 -7.671875 L 3.71875 -7.671875 C 4.550781 -7.671875 5.207031 -7.453125 5.6875 -7.015625 C 6.164062 -6.585938 6.40625 -6.023438 6.40625 -5.328125 C 6.40625 -4.578125 6.171875 -4 5.703125 -3.59375 C 5.234375 -3.195312 4.566406 -3 3.703125 -3 Z M 1.90625 -3.828125 L 3.71875 -3.828125 C 4.257812 -3.828125 4.671875 -3.953125 4.953125 -4.203125 C 5.242188 -4.460938 5.390625 -4.832031 5.390625 -5.3125 C 5.390625 -5.769531 5.242188 -6.132812 4.953125 -6.40625 C 4.671875 -6.675781 4.28125 -6.816406 3.78125 -6.828125 L 1.90625 -6.828125 Z M 1.90625 -3.828125 "/></g></g></g><g fill="#ffffff" fill-opacity="1"><g transform="translate(120.473981, 252.909929)"><g><path d="M 6.78125 -3.578125 C 6.78125 -2.828125 6.65625 -2.171875 6.40625 -1.609375 C 6.15625 -1.054688 5.796875 -0.628906 5.328125 -0.328125 C 4.867188 -0.0351562 4.332031 0.109375 3.71875 0.109375 C 3.113281 0.109375 2.578125 -0.0351562 2.109375 -0.328125 C 1.640625 -0.628906 1.273438 -1.054688 1.015625 -1.609375 C 0.753906 -2.160156 0.625 -2.796875 0.625 -3.515625 L 0.625 -4.0625 C 0.625 -4.800781 0.75 -5.453125 1 -6.015625 C 1.257812 -6.585938 1.625 -7.019531 2.09375 -7.3125 C 2.5625 -7.613281 3.097656 -7.765625 3.703125 -7.765625 C 4.316406 -7.765625 4.859375 -7.613281 5.328125 -7.3125 C 5.796875 -7.019531 6.15625 -6.59375 6.40625 -6.03125 C 6.65625 -5.46875 6.78125 -4.8125 6.78125 -4.0625 Z M 5.78125 -4.078125 C 5.78125 -4.984375 5.597656 -5.679688 5.234375 -6.171875 C 4.867188 -6.660156 4.359375 -6.90625 3.703125 -6.90625 C 3.066406 -6.90625 2.5625 -6.660156 2.1875 -6.171875 C 1.820312 -5.679688 1.632812 -5.003906 1.625 -4.140625 L 1.625 -3.578125 C 1.625 -2.703125 1.804688 -2.007812 2.171875 -1.5 C 2.546875 -1 3.0625 -0.75 3.71875 -0.75 C 4.363281 -0.75 4.863281 -0.984375 5.21875 -1.453125 C 5.582031 -1.929688 5.769531 -2.617188 5.78125 -3.515625 Z M 5.78125 -4.078125 "/></g></g></g><g fill="#ffffff" fill-opacity="1"><g transform="translate(133.355594, 252.909929)"><g><path d="M 3.703125 -3.09375 L 1.90625 -3.09375 L 1.90625 0 L 0.890625 0 L 0.890625 -7.671875 L 3.421875 -7.671875 C 4.285156 -7.671875 4.945312 -7.472656 5.40625 -7.078125 C 5.875 -6.679688 6.109375 -6.109375 6.109375 -5.359375 C 6.109375 -4.878906 5.976562 -4.460938 5.71875 -4.109375 C 5.46875 -3.753906 5.109375 -3.488281 4.640625 -3.3125 L 6.453125 -0.0625 L 6.453125 0 L 5.359375 0 Z M 1.90625 -3.921875 L 3.453125 -3.921875 C 3.953125 -3.921875 4.347656 -4.050781 4.640625 -4.3125 C 4.941406 -4.570312 5.09375 -4.921875 5.09375 -5.359375 C 5.09375 -5.828125 4.953125 -6.1875 4.671875 -6.4375 C 4.390625 -6.695312 3.984375 -6.828125 3.453125 -6.828125 L 1.90625 -6.828125 Z M 1.90625 -3.921875 "/></g></g></g><g fill="#ffffff" fill-opacity="1"><g transform="translate(145.464203, 252.909929)"><g><path d="M 6.1875 -6.828125 L 3.71875 -6.828125 L 3.71875 0 L 2.71875 0 L 2.71875 -6.828125 L 0.265625 -6.828125 L 0.265625 -7.671875 L 6.1875 -7.671875 Z M 6.1875 -6.828125 "/></g></g></g><g fill="#ffffff" fill-opacity="1"><g transform="translate(157.367723, 252.909929)"><g/></g></g><g fill="#ffffff" fill-opacity="1"><g transform="translate(165.511378, 252.909929)"><g><path d="M 1.96875 0 L 0.96875 0 L 0.96875 -7.671875 L 1.96875 -7.671875 Z M 1.96875 0 "/></g></g></g><g fill="#ffffff" fill-opacity="1"><g transform="translate(173.917961, 252.909929)"><g><path d="M 6.78125 0 L 5.765625 0 L 1.90625 -5.90625 L 1.90625 0 L 0.890625 0 L 0.890625 -7.671875 L 1.90625 -7.671875 L 5.78125 -1.734375 L 5.78125 -7.671875 L 6.78125 -7.671875 Z M 6.78125 0 "/></g></g></g><g fill="#ffffff" fill-opacity="1"><g transform="translate(187.073018, 252.909929)"><g/></g></g><g fill="#ffffff" fill-opacity="1"><g transform="translate(195.216679, 252.909929)"><g><path d="M 6.78125 0 L 5.765625 0 L 1.90625 -5.90625 L 1.90625 0 L 0.890625 0 L 0.890625 -7.671875 L 1.90625 -7.671875 L 5.78125 -1.734375 L 5.78125 -7.671875 L 6.78125 -7.671875 Z M 6.78125 0 "/></g></g></g><g fill="#ffffff" fill-opacity="1"><g transform="translate(208.371742, 252.909929)"><g><path d="M 5.21875 -3.546875 L 1.90625 -3.546875 L 1.90625 -0.828125 L 5.765625 -0.828125 L 5.765625 0 L 0.890625 0 L 0.890625 -7.671875 L 5.703125 -7.671875 L 5.703125 -6.828125 L 1.90625 -6.828125 L 1.90625 -4.375 L 5.21875 -4.375 Z M 5.21875 -3.546875 "/></g></g></g><g fill="#ffffff" fill-opacity="1"><g transform="translate(219.970271, 252.909929)"><g><path d="M 6.1875 -6.828125 L 3.71875 -6.828125 L 3.71875 0 L 2.71875 0 L 2.71875 -6.828125 L 0.265625 -6.828125 L 0.265625 -7.671875 L 6.1875 -7.671875 Z M 6.1875 -6.828125 "/></g></g></g><g fill="#ffffff" fill-opacity="1"><g transform="translate(231.873796, 252.909929)"><g><path d="M 2.546875 -2.421875 L 2.6875 -1.40625 L 2.90625 -2.3125 L 4.421875 -7.671875 L 5.28125 -7.671875 L 6.75 -2.3125 L 6.96875 -1.390625 L 7.125 -2.421875 L 8.3125 -7.671875 L 9.328125 -7.671875 L 7.46875 0 L 6.546875 0 L 4.96875 -5.578125 L 4.859375 -6.171875 L 4.734375 -5.578125 L 3.09375 0 L 2.171875 0 L 0.328125 -7.671875 L 1.328125 -7.671875 Z M 2.546875 -2.421875 "/></g></g></g><g fill="#ffffff" fill-opacity="1"><g transform="translate(246.906171, 252.909929)"><g><path d="M 6.78125 -3.578125 C 6.78125 -2.828125 6.65625 -2.171875 6.40625 -1.609375 C 6.15625 -1.054688 5.796875 -0.628906 5.328125 -0.328125 C 4.867188 -0.0351562 4.332031 0.109375 3.71875 0.109375 C 3.113281 0.109375 2.578125 -0.0351562 2.109375 -0.328125 C 1.640625 -0.628906 1.273438 -1.054688 1.015625 -1.609375 C 0.753906 -2.160156 0.625 -2.796875 0.625 -3.515625 L 0.625 -4.0625 C 0.625 -4.800781 0.75 -5.453125 1 -6.015625 C 1.257812 -6.585938 1.625 -7.019531 2.09375 -7.3125 C 2.5625 -7.613281 3.097656 -7.765625 3.703125 -7.765625 C 4.316406 -7.765625 4.859375 -7.613281 5.328125 -7.3125 C 5.796875 -7.019531 6.15625 -6.59375 6.40625 -6.03125 C 6.65625 -5.46875 6.78125 -4.8125 6.78125 -4.0625 Z M 5.78125 -4.078125 C 5.78125 -4.984375 5.597656 -5.679688 5.234375 -6.171875 C 4.867188 -6.660156 4.359375 -6.90625 3.703125 -6.90625 C 3.066406 -6.90625 2.5625 -6.660156 2.1875 -6.171875 C 1.820312 -5.679688 1.632812 -5.003906 1.625 -4.140625 L 1.625 -3.578125 C 1.625 -2.703125 1.804688 -2.007812 2.171875 -1.5 C 2.546875 -1 3.0625 -0.75 3.71875 -0.75 C 4.363281 -0.75 4.863281 -0.984375 5.21875 -1.453125 C 5.582031 -1.929688 5.769531 -2.617188 5.78125 -3.515625 Z M 5.78125 -4.078125 "/></g></g></g><g fill="#ffffff" fill-opacity="1"><g transform="translate(259.787777, 252.909929)"><g><path d="M 3.703125 -3.09375 L 1.90625 -3.09375 L 1.90625 0 L 0.890625 0 L 0.890625 -7.671875 L 3.421875 -7.671875 C 4.285156 -7.671875 4.945312 -7.472656 5.40625 -7.078125 C 5.875 -6.679688 6.109375 -6.109375 6.109375 -5.359375 C 6.109375 -4.878906 5.976562 -4.460938 5.71875 -4.109375 C 5.46875 -3.753906 5.109375 -3.488281 4.640625 -3.3125 L 6.453125 -0.0625 L 6.453125 0 L 5.359375 0 Z M 1.90625 -3.921875 L 3.453125 -3.921875 C 3.953125 -3.921875 4.347656 -4.050781 4.640625 -4.3125 C 4.941406 -4.570312 5.09375 -4.921875 5.09375 -5.359375 C 5.09375 -5.828125 4.953125 -6.1875 4.671875 -6.4375 C 4.390625 -6.695312 3.984375 -6.828125 3.453125 -6.828125 L 1.90625 -6.828125 Z M 1.90625 -3.921875 "/></g></g></g><g fill="#ffffff" fill-opacity="1"><g transform="translate(271.896381, 252.909929)"><g><path d="M 2.84375 -3.5625 L 1.90625 -2.59375 L 1.90625 0 L 0.890625 0 L 0.890625 -7.671875 L 1.90625 -7.671875 L 1.90625 -3.875 L 5.3125 -7.671875 L 6.53125 -7.671875 L 3.515625 -4.28125 L 6.765625 0 L 5.546875 0 Z M 2.84375 -3.5625 "/></g></g></g></svg>