<svg xmlns="http://www.w3.org/2000/svg" xmlns:xlink="http://www.w3.org/1999/xlink" width="500" zoomAndPan="magnify" viewBox="0 0 375 374.999991" height="500" preserveAspectRatio="xMidYMid meet" version="1.0"><defs><g/><clipPath id="5e3ee8fefb"><path d="M 37.5 162 L 58 162 L 58 222 L 37.5 222 Z M 37.5 162 " clip-rule="nonzero"/></clipPath><clipPath id="f708e79b56"><path d="M 63 142 L 97 142 L 97 234.644531 L 63 234.644531 Z M 63 142 " clip-rule="nonzero"/></clipPath><clipPath id="2e132b563c"><path d="M 317 153 L 337.375 153 L 337.375 213 L 317 213 Z M 317 153 " clip-rule="nonzero"/></clipPath><clipPath id="cf8b636b29"><path d="M 278 140.351562 L 312 140.351562 L 312 233 L 278 233 Z M 278 140.351562 " clip-rule="nonzero"/></clipPath></defs><g clip-path="url(#5e3ee8fefb)"><path fill="#ffffff" d="M 57.285156 162.011719 L 44.09375 162.011719 C 37.5 162.011719 37.5 166.324219 37.5 168.609375 L 37.5 214.773438 C 37.5 217.058594 37.5 221.371094 44.09375 221.371094 L 57.285156 221.371094 Z M 57.285156 162.011719 " fill-opacity="1" fill-rule="nonzero"/></g><g clip-path="url(#f708e79b56)"><path fill="#ffffff" d="M 96.859375 176.851562 L 96.859375 148.820312 C 96.859375 146.539062 96.859375 142.226562 90.261719 142.226562 L 70.476562 142.226562 C 63.882812 142.226562 63.882812 146.539062 63.882812 148.820312 L 63.882812 227.964844 C 63.882812 230.246094 63.882812 234.5625 70.476562 234.5625 L 90.261719 234.5625 C 96.859375 234.5625 96.859375 230.246094 96.859375 227.964844 Z M 96.859375 176.851562 " fill-opacity="1" fill-rule="nonzero"/></g><g fill="#ffde59" fill-opacity="1"><g transform="translate(124.228347, 195.361979)"><g><path d="M 4.125 0.234375 C 1.863281 0.234375 0.363281 -0.320312 -0.375 -1.4375 C -1.125 -2.5625 -1.210938 -4.375 -0.640625 -6.875 L -0.078125 -9.3125 L 4.8125 -9.3125 L 4.09375 -6.203125 C 3.800781 -4.960938 4.050781 -4.34375 4.84375 -4.34375 C 5.289062 -4.34375 5.632812 -4.472656 5.875 -4.734375 C 6.113281 -5.003906 6.300781 -5.445312 6.4375 -6.0625 C 6.632812 -6.875 6.691406 -7.546875 6.609375 -8.078125 C 6.535156 -8.609375 6.390625 -9.050781 6.171875 -9.40625 C 5.960938 -9.769531 5.5625 -10.328125 4.96875 -11.078125 L 3.3125 -13.21875 C 2.03125 -14.84375 1.613281 -16.644531 2.0625 -18.625 C 2.539062 -20.75 3.398438 -22.363281 4.640625 -23.46875 C 5.878906 -24.582031 7.4375 -25.140625 9.3125 -25.140625 C 11.550781 -25.140625 13.03125 -24.546875 13.75 -23.359375 C 14.46875 -22.171875 14.523438 -20.3125 13.921875 -17.78125 L 8.84375 -17.78125 L 9.21875 -19.484375 C 9.300781 -19.816406 9.273438 -20.078125 9.140625 -20.265625 C 9.003906 -20.460938 8.769531 -20.5625 8.4375 -20.5625 C 8.050781 -20.5625 7.734375 -20.453125 7.484375 -20.234375 C 7.234375 -20.023438 7.066406 -19.738281 6.984375 -19.375 C 6.796875 -18.5625 7.066406 -17.71875 7.796875 -16.84375 L 10.0625 -14.0625 C 10.582031 -13.40625 11 -12.78125 11.3125 -12.1875 C 11.625 -11.601562 11.820312 -10.910156 11.90625 -10.109375 C 11.988281 -9.304688 11.90625 -8.351562 11.65625 -7.25 C 11.082031 -4.789062 10.195312 -2.925781 9 -1.65625 C 7.8125 -0.394531 6.1875 0.234375 4.125 0.234375 Z M 4.125 0.234375 "/></g></g></g><g fill="#ffde59" fill-opacity="1"><g transform="translate(140.290743, 195.361979)"><g><path d="M 4 -24.90625 L 10.59375 -24.90625 C 12.582031 -24.90625 13.851562 -24.257812 14.40625 -22.96875 C 14.957031 -21.6875 14.953125 -19.8125 14.390625 -17.34375 C 13.804688 -14.863281 12.992188 -12.992188 11.953125 -11.734375 C 10.910156 -10.484375 9.410156 -9.859375 7.453125 -9.859375 L 5.421875 -9.859375 L 3.15625 0 L -1.734375 0 Z M 6.765625 -14.359375 C 7.359375 -14.359375 7.816406 -14.46875 8.140625 -14.6875 C 8.472656 -14.90625 8.726562 -15.222656 8.90625 -15.640625 C 9.09375 -16.054688 9.285156 -16.648438 9.484375 -17.421875 C 9.710938 -18.472656 9.765625 -19.226562 9.640625 -19.6875 C 9.515625 -20.15625 9.101562 -20.390625 8.40625 -20.390625 L 7.859375 -20.390625 L 6.46875 -14.359375 Z M 6.765625 -14.359375 "/></g></g></g><g fill="#ffde59" fill-opacity="1"><g transform="translate(156.672051, 195.361979)"><g><path d="M 4.15625 0.234375 C 2.144531 0.234375 0.757812 -0.378906 0 -1.609375 C -0.769531 -2.835938 -0.894531 -4.5625 -0.375 -6.78125 L 2.34375 -18.640625 C 2.851562 -20.785156 3.753906 -22.40625 5.046875 -23.5 C 6.335938 -24.59375 7.988281 -25.140625 10 -25.140625 C 12.007812 -25.140625 13.410156 -24.59375 14.203125 -23.5 C 15.003906 -22.40625 15.148438 -20.785156 14.640625 -18.640625 L 11.921875 -6.78125 C 11.398438 -4.539062 10.476562 -2.8125 9.15625 -1.59375 C 7.832031 -0.375 6.164062 0.234375 4.15625 0.234375 Z M 5.1875 -4.34375 C 5.632812 -4.34375 5.984375 -4.535156 6.234375 -4.921875 C 6.484375 -5.316406 6.6875 -5.859375 6.84375 -6.546875 L 9.65625 -18.734375 C 9.769531 -19.273438 9.796875 -19.710938 9.734375 -20.046875 C 9.679688 -20.390625 9.4375 -20.5625 9 -20.5625 C 8.164062 -20.5625 7.601562 -19.929688 7.3125 -18.671875 L 4.5 -6.53125 C 4.320312 -5.8125 4.273438 -5.265625 4.359375 -4.890625 C 4.453125 -4.523438 4.726562 -4.34375 5.1875 -4.34375 Z M 5.1875 -4.34375 "/></g></g></g><g fill="#ffde59" fill-opacity="1"><g transform="translate(173.459248, 195.361979)"><g><path d="M 4 -24.90625 L 11.65625 -24.90625 C 12.875 -24.90625 13.753906 -24.628906 14.296875 -24.078125 C 14.835938 -23.535156 15.109375 -22.765625 15.109375 -21.765625 C 15.109375 -20.765625 14.9375 -19.492188 14.59375 -17.953125 C 14.257812 -16.535156 13.816406 -15.429688 13.265625 -14.640625 C 12.710938 -13.847656 11.945312 -13.296875 10.96875 -12.984375 C 11.675781 -12.835938 12.128906 -12.460938 12.328125 -11.859375 C 12.535156 -11.265625 12.523438 -10.453125 12.296875 -9.421875 L 10.0625 0 L 5.1875 0 L 7.421875 -9.75 C 7.597656 -10.4375 7.566406 -10.878906 7.328125 -11.078125 C 7.097656 -11.273438 6.628906 -11.375 5.921875 -11.375 L 3.3125 0 L -1.734375 0 Z M 8.15625 -15.6875 C 8.84375 -15.6875 9.363281 -16.441406 9.71875 -17.953125 C 9.875 -18.609375 9.957031 -19.097656 9.96875 -19.421875 C 9.976562 -19.753906 9.914062 -19.984375 9.78125 -20.109375 C 9.65625 -20.234375 9.453125 -20.296875 9.171875 -20.296875 L 8 -20.296875 L 6.96875 -15.6875 Z M 8.15625 -15.6875 "/></g></g></g><g fill="#ffde59" fill-opacity="1"><g transform="translate(189.985517, 195.361979)"><g><path d="M 0.375 0 L 5.015625 -20.125 L 2.0625 -20.125 L 3.15625 -24.90625 L 14.0625 -24.90625 L 12.96875 -20.125 L 10 -20.125 L 5.359375 0 Z M 0.375 0 "/></g></g></g><g fill="#ffde59" fill-opacity="1"><g transform="translate(204.163424, 195.361979)"><g><path d="M -1.734375 0 L 4 -24.90625 L 9.140625 -24.90625 L 8.671875 -12.984375 L 11.421875 -24.90625 L 16.25 -24.90625 L 10.5 0 L 5.625 0 L 6 -12.46875 L 3.140625 0 Z M -1.734375 0 "/></g></g></g><g fill="#ffde59" fill-opacity="1"><g transform="translate(221.298536, 195.361979)"><g><path d="M -1.734375 0 L 4 -24.90625 L 13.984375 -24.90625 L 12.875 -20.09375 L 7.984375 -20.09375 L 6.84375 -15.25 L 11.546875 -15.25 L 10.46875 -10.5625 L 5.765625 -10.5625 L 4.4375 -4.84375 L 9.65625 -4.84375 L 8.5625 0 Z M -1.734375 0 "/></g></g></g><g fill="#ffde59" fill-opacity="1"><g transform="translate(235.940323, 195.361979)"><g><path d="M 0.375 0 L 5.015625 -20.125 L 2.0625 -20.125 L 3.15625 -24.90625 L 14.0625 -24.90625 L 12.96875 -20.125 L 10 -20.125 L 5.359375 0 Z M 0.375 0 "/></g></g></g><g fill="#ffffff" fill-opacity="1"><g transform="translate(138.423137, 211.329596)"><g><path d="M 1.515625 0.078125 C 0.679688 0.078125 0.128906 -0.125 -0.140625 -0.53125 C -0.410156 -0.945312 -0.441406 -1.613281 -0.234375 -2.53125 L -0.03125 -3.421875 L 1.78125 -3.421875 L 1.515625 -2.28125 C 1.398438 -1.820312 1.488281 -1.59375 1.78125 -1.59375 C 1.945312 -1.59375 2.070312 -1.640625 2.15625 -1.734375 C 2.25 -1.835938 2.320312 -2.003906 2.375 -2.234375 C 2.445312 -2.523438 2.46875 -2.769531 2.4375 -2.96875 C 2.40625 -3.164062 2.347656 -3.328125 2.265625 -3.453125 C 2.191406 -3.585938 2.046875 -3.796875 1.828125 -4.078125 L 1.21875 -4.859375 C 0.75 -5.460938 0.597656 -6.125 0.765625 -6.84375 C 0.941406 -7.632812 1.253906 -8.234375 1.703125 -8.640625 C 2.160156 -9.046875 2.738281 -9.25 3.4375 -9.25 C 4.257812 -9.25 4.800781 -9.03125 5.0625 -8.59375 C 5.320312 -8.15625 5.34375 -7.472656 5.125 -6.546875 L 3.265625 -6.546875 L 3.40625 -7.171875 C 3.425781 -7.296875 3.410156 -7.390625 3.359375 -7.453125 C 3.316406 -7.523438 3.234375 -7.5625 3.109375 -7.5625 C 2.960938 -7.5625 2.84375 -7.519531 2.75 -7.4375 C 2.664062 -7.363281 2.609375 -7.257812 2.578125 -7.125 C 2.503906 -6.832031 2.601562 -6.523438 2.875 -6.203125 L 3.703125 -5.171875 C 3.898438 -4.929688 4.054688 -4.703125 4.171875 -4.484375 C 4.285156 -4.265625 4.359375 -4.007812 4.390625 -3.71875 C 4.421875 -3.425781 4.390625 -3.078125 4.296875 -2.671875 C 4.078125 -1.765625 3.75 -1.078125 3.3125 -0.609375 C 2.875 -0.148438 2.273438 0.078125 1.515625 0.078125 Z M 1.515625 0.078125 "/></g></g></g><g fill="#ffffff" fill-opacity="1"><g transform="translate(144.332139, 211.329596)"><g><path d="M 1.484375 -9.171875 L 3.90625 -9.171875 C 4.632812 -9.171875 5.097656 -8.929688 5.296875 -8.453125 C 5.503906 -7.984375 5.503906 -7.289062 5.296875 -6.375 C 5.085938 -5.46875 4.789062 -4.78125 4.40625 -4.3125 C 4.019531 -3.851562 3.46875 -3.625 2.75 -3.625 L 2 -3.625 L 1.171875 0 L -0.640625 0 Z M 2.484375 -5.28125 C 2.710938 -5.28125 2.882812 -5.320312 3 -5.40625 C 3.125 -5.488281 3.21875 -5.601562 3.28125 -5.75 C 3.351562 -5.90625 3.425781 -6.125 3.5 -6.40625 C 3.582031 -6.789062 3.597656 -7.066406 3.546875 -7.234375 C 3.503906 -7.410156 3.351562 -7.5 3.09375 -7.5 L 2.890625 -7.5 L 2.390625 -5.28125 Z M 2.484375 -5.28125 "/></g></g></g><g fill="#ffffff" fill-opacity="1"><g transform="translate(150.358443, 211.329596)"><g><path d="M 1.53125 0.078125 C 0.789062 0.078125 0.28125 -0.144531 0 -0.59375 C -0.28125 -1.039062 -0.328125 -1.675781 -0.140625 -2.5 L 0.875 -6.859375 C 1.050781 -7.648438 1.378906 -8.242188 1.859375 -8.640625 C 2.335938 -9.046875 2.945312 -9.25 3.6875 -9.25 C 4.425781 -9.25 4.941406 -9.046875 5.234375 -8.640625 C 5.523438 -8.242188 5.578125 -7.648438 5.390625 -6.859375 L 4.390625 -2.5 C 4.203125 -1.675781 3.863281 -1.039062 3.375 -0.59375 C 2.882812 -0.144531 2.269531 0.078125 1.53125 0.078125 Z M 1.921875 -1.59375 C 2.078125 -1.59375 2.203125 -1.664062 2.296875 -1.8125 C 2.390625 -1.957031 2.46875 -2.15625 2.53125 -2.40625 L 3.5625 -6.890625 C 3.601562 -7.085938 3.613281 -7.25 3.59375 -7.375 C 3.570312 -7.5 3.476562 -7.5625 3.3125 -7.5625 C 3.007812 -7.5625 2.800781 -7.332031 2.6875 -6.875 L 1.65625 -2.40625 C 1.59375 -2.132812 1.578125 -1.929688 1.609375 -1.796875 C 1.640625 -1.660156 1.742188 -1.59375 1.921875 -1.59375 Z M 1.921875 -1.59375 "/></g></g></g><g fill="#ffffff" fill-opacity="1"><g transform="translate(156.534047, 211.329596)"><g><path d="M 1.484375 -9.171875 L 4.296875 -9.171875 C 4.742188 -9.171875 5.066406 -9.066406 5.265625 -8.859375 C 5.460938 -8.660156 5.5625 -8.375 5.5625 -8 C 5.5625 -7.632812 5.5 -7.171875 5.375 -6.609375 C 5.25 -6.085938 5.082031 -5.679688 4.875 -5.390625 C 4.675781 -5.097656 4.394531 -4.894531 4.03125 -4.78125 C 4.300781 -4.726562 4.472656 -4.585938 4.546875 -4.359375 C 4.617188 -4.140625 4.613281 -3.84375 4.53125 -3.46875 L 3.703125 0 L 1.921875 0 L 2.734375 -3.578125 C 2.796875 -3.835938 2.785156 -4.003906 2.703125 -4.078125 C 2.617188 -4.148438 2.445312 -4.1875 2.1875 -4.1875 L 1.21875 0 L -0.640625 0 Z M 3 -5.78125 C 3.257812 -5.78125 3.453125 -6.054688 3.578125 -6.609375 C 3.640625 -6.847656 3.671875 -7.023438 3.671875 -7.140625 C 3.671875 -7.265625 3.644531 -7.347656 3.59375 -7.390625 C 3.550781 -7.441406 3.476562 -7.46875 3.375 -7.46875 L 2.953125 -7.46875 L 2.5625 -5.78125 Z M 3 -5.78125 "/></g></g></g><g fill="#ffffff" fill-opacity="1"><g transform="translate(162.613668, 211.329596)"><g><path d="M 0.140625 0 L 1.84375 -7.40625 L 0.75 -7.40625 L 1.15625 -9.171875 L 5.171875 -9.171875 L 4.765625 -7.40625 L 3.6875 -7.40625 L 1.96875 0 Z M 0.140625 0 "/></g></g></g><g fill="#ffffff" fill-opacity="1"><g transform="translate(167.829502, 211.329596)"><g><path d="M 1.515625 0.078125 C 0.679688 0.078125 0.128906 -0.125 -0.140625 -0.53125 C -0.410156 -0.945312 -0.441406 -1.613281 -0.234375 -2.53125 L -0.03125 -3.421875 L 1.78125 -3.421875 L 1.515625 -2.28125 C 1.398438 -1.820312 1.488281 -1.59375 1.78125 -1.59375 C 1.945312 -1.59375 2.070312 -1.640625 2.15625 -1.734375 C 2.25 -1.835938 2.320312 -2.003906 2.375 -2.234375 C 2.445312 -2.523438 2.46875 -2.769531 2.4375 -2.96875 C 2.40625 -3.164062 2.347656 -3.328125 2.265625 -3.453125 C 2.191406 -3.585938 2.046875 -3.796875 1.828125 -4.078125 L 1.21875 -4.859375 C 0.75 -5.460938 0.597656 -6.125 0.765625 -6.84375 C 0.941406 -7.632812 1.253906 -8.234375 1.703125 -8.640625 C 2.160156 -9.046875 2.738281 -9.25 3.4375 -9.25 C 4.257812 -9.25 4.800781 -9.03125 5.0625 -8.59375 C 5.320312 -8.15625 5.34375 -7.472656 5.125 -6.546875 L 3.265625 -6.546875 L 3.40625 -7.171875 C 3.425781 -7.296875 3.410156 -7.390625 3.359375 -7.453125 C 3.316406 -7.523438 3.234375 -7.5625 3.109375 -7.5625 C 2.960938 -7.5625 2.84375 -7.519531 2.75 -7.4375 C 2.664062 -7.363281 2.609375 -7.257812 2.578125 -7.125 C 2.503906 -6.832031 2.601562 -6.523438 2.875 -6.203125 L 3.703125 -5.171875 C 3.898438 -4.929688 4.054688 -4.703125 4.171875 -4.484375 C 4.285156 -4.265625 4.359375 -4.007812 4.390625 -3.71875 C 4.421875 -3.425781 4.390625 -3.078125 4.296875 -2.671875 C 4.078125 -1.765625 3.75 -1.078125 3.3125 -0.609375 C 2.875 -0.148438 2.273438 0.078125 1.515625 0.078125 Z M 1.515625 0.078125 "/></g></g></g><g fill="#ffffff" fill-opacity="1"><g transform="translate(173.738504, 211.329596)"><g/></g></g><g fill="#ffffff" fill-opacity="1"><g transform="translate(177.226748, 211.329596)"><g><path d="M -0.71875 0 L 1.390625 -9.171875 L 3.15625 -9.171875 L 1.046875 0 Z M -0.71875 0 "/></g></g></g><g fill="#ffffff" fill-opacity="1"><g transform="translate(180.640355, 211.329596)"><g><path d="M -0.640625 0 L 1.484375 -9.171875 L 3.359375 -9.171875 L 3.203125 -4.78125 L 4.203125 -9.171875 L 5.984375 -9.171875 L 3.875 0 L 2.078125 0 L 2.21875 -4.59375 L 1.15625 0 Z M -0.640625 0 "/></g></g></g><g fill="#ffffff" fill-opacity="1"><g transform="translate(186.943926, 211.329596)"><g/></g></g><g fill="#ffffff" fill-opacity="1"><g transform="translate(190.432171, 211.329596)"><g><path d="M -0.640625 0 L 1.484375 -9.171875 L 3.359375 -9.171875 L 3.203125 -4.78125 L 4.203125 -9.171875 L 5.984375 -9.171875 L 3.875 0 L 2.078125 0 L 2.21875 -4.59375 L 1.15625 0 Z M -0.640625 0 "/></g></g></g><g fill="#ffffff" fill-opacity="1"><g transform="translate(196.735742, 211.329596)"><g><path d="M -0.640625 0 L 1.484375 -9.171875 L 5.15625 -9.171875 L 4.75 -7.390625 L 2.9375 -7.390625 L 2.53125 -5.609375 L 4.25 -5.609375 L 3.859375 -3.890625 L 2.125 -3.890625 L 1.640625 -1.78125 L 3.5625 -1.78125 L 3.15625 0 Z M -0.640625 0 "/></g></g></g><g fill="#ffffff" fill-opacity="1"><g transform="translate(202.122207, 211.329596)"><g><path d="M 0.140625 0 L 1.84375 -7.40625 L 0.75 -7.40625 L 1.15625 -9.171875 L 5.171875 -9.171875 L 4.765625 -7.40625 L 3.6875 -7.40625 L 1.96875 0 Z M 0.140625 0 "/></g></g></g><g fill="#ffffff" fill-opacity="1"><g transform="translate(207.33804, 211.329596)"><g><path d="M 0.0625 0 L 1.1875 -9.171875 L 2.984375 -9.171875 L 2.171875 -3.390625 L 4.015625 -9.171875 L 5.71875 -9.171875 L 4.875 -3.390625 L 6.703125 -9.171875 L 8.515625 -9.171875 L 5.40625 0 L 3.203125 0 L 3.75 -4.421875 L 2.3125 0 Z M 0.0625 0 "/></g></g></g><g fill="#ffffff" fill-opacity="1"><g transform="translate(215.923735, 211.329596)"><g><path d="M 1.53125 0.078125 C 0.789062 0.078125 0.28125 -0.144531 0 -0.59375 C -0.28125 -1.039062 -0.328125 -1.675781 -0.140625 -2.5 L 0.875 -6.859375 C 1.050781 -7.648438 1.378906 -8.242188 1.859375 -8.640625 C 2.335938 -9.046875 2.945312 -9.25 3.6875 -9.25 C 4.425781 -9.25 4.941406 -9.046875 5.234375 -8.640625 C 5.523438 -8.242188 5.578125 -7.648438 5.390625 -6.859375 L 4.390625 -2.5 C 4.203125 -1.675781 3.863281 -1.039062 3.375 -0.59375 C 2.882812 -0.144531 2.269531 0.078125 1.53125 0.078125 Z M 1.921875 -1.59375 C 2.078125 -1.59375 2.203125 -1.664062 2.296875 -1.8125 C 2.390625 -1.957031 2.46875 -2.15625 2.53125 -2.40625 L 3.5625 -6.890625 C 3.601562 -7.085938 3.613281 -7.25 3.59375 -7.375 C 3.570312 -7.5 3.476562 -7.5625 3.3125 -7.5625 C 3.007812 -7.5625 2.800781 -7.332031 2.6875 -6.875 L 1.65625 -2.40625 C 1.59375 -2.132812 1.578125 -1.929688 1.609375 -1.796875 C 1.640625 -1.660156 1.742188 -1.59375 1.921875 -1.59375 Z M 1.921875 -1.59375 "/></g></g></g><g fill="#ffffff" fill-opacity="1"><g transform="translate(222.099338, 211.329596)"><g><path d="M 1.484375 -9.171875 L 4.296875 -9.171875 C 4.742188 -9.171875 5.066406 -9.066406 5.265625 -8.859375 C 5.460938 -8.660156 5.5625 -8.375 5.5625 -8 C 5.5625 -7.632812 5.5 -7.171875 5.375 -6.609375 C 5.25 -6.085938 5.082031 -5.679688 4.875 -5.390625 C 4.675781 -5.097656 4.394531 -4.894531 4.03125 -4.78125 C 4.300781 -4.726562 4.472656 -4.585938 4.546875 -4.359375 C 4.617188 -4.140625 4.613281 -3.84375 4.53125 -3.46875 L 3.703125 0 L 1.921875 0 L 2.734375 -3.578125 C 2.796875 -3.835938 2.785156 -4.003906 2.703125 -4.078125 C 2.617188 -4.148438 2.445312 -4.1875 2.1875 -4.1875 L 1.21875 0 L -0.640625 0 Z M 3 -5.78125 C 3.257812 -5.78125 3.453125 -6.054688 3.578125 -6.609375 C 3.640625 -6.847656 3.671875 -7.023438 3.671875 -7.140625 C 3.671875 -7.265625 3.644531 -7.347656 3.59375 -7.390625 C 3.550781 -7.441406 3.476562 -7.46875 3.375 -7.46875 L 2.953125 -7.46875 L 2.5625 -5.78125 Z M 3 -5.78125 "/></g></g></g><g fill="#ffffff" fill-opacity="1"><g transform="translate(228.17896, 211.329596)"><g><path d="M -0.640625 0 L 1.484375 -9.171875 L 3.296875 -9.171875 L 2.453125 -5.5 L 4.140625 -9.171875 L 5.984375 -9.171875 L 4 -4.96875 L 4.09375 0 L 2.1875 0 L 2.21875 -4.4375 L 1.1875 0 Z M -0.640625 0 "/></g></g></g><g clip-path="url(#2e132b563c)"><path fill="#ffffff" d="M 317.707031 212.984375 L 330.894531 212.984375 C 337.492188 212.984375 337.492188 208.667969 337.492188 206.386719 L 337.492188 160.21875 C 337.492188 157.9375 337.492188 153.625 330.894531 153.625 L 317.707031 153.625 Z M 317.707031 212.984375 " fill-opacity="1" fill-rule="nonzero"/></g><g clip-path="url(#cf8b636b29)"><path fill="#ffffff" d="M 278.132812 198.144531 L 278.132812 226.171875 C 278.132812 228.457031 278.132812 232.769531 284.730469 232.769531 L 304.515625 232.769531 C 311.109375 232.769531 311.109375 228.457031 311.109375 226.171875 L 311.109375 147.03125 C 311.109375 144.746094 311.109375 140.433594 304.515625 140.433594 L 284.730469 140.433594 C 278.132812 140.433594 278.132812 144.746094 278.132812 147.03125 Z M 278.132812 198.144531 " fill-opacity="1" fill-rule="nonzero"/></g></svg>