<svg width="14" height="14" viewBox="0 0 14 14" fill="none" xmlns="http://www.w3.org/2000/svg">
<g clip-path="url(#clip0_4_6042)">
<path d="M13.048 8.25992C12.74 8.25992 12.516 8.51192 12.516 8.79192V12.9359H1.064V1.48392H5.208C5.516 1.48392 5.74 1.23192 5.74 0.951922C5.74 0.671922 5.488 0.419922 5.208 0.419922H0.532C0.252 0.419922 0 0.671922 0 0.951922V13.4679C0 13.7479 0.252 13.9999 0.532 13.9999H13.048C13.356 13.9999 13.58 13.7479 13.58 13.4679V8.79192C13.58 8.51192 13.328 8.25992 13.048 8.25992Z" fill="white"/>
<path d="M13.8325 2.072L11.9285 0.168C11.8445 0.056 11.7045 0 11.5645 0C11.4245 0 11.2845 0.056 11.2005 0.168L4.87254 6.468C4.81654 6.524 4.76054 6.608 4.73254 6.692L3.97654 9.352C3.92054 9.548 3.97654 9.744 4.11654 9.884C4.22854 9.996 4.34054 10.052 4.48054 10.052C4.53654 10.052 4.56454 10.052 4.62054 10.024L7.28054 9.268C7.36454 9.24 7.44854 9.184 7.50454 9.128L13.8045 2.828C14.0565 2.604 14.0565 2.268 13.8325 2.072ZM6.88854 8.26L5.29254 8.708L5.74054 7.112L11.5645 1.288L12.7125 2.436L6.88854 8.26Z" fill="white"/>
<path d="M5.65177 6.45956L4.89941 7.21191L6.8001 9.1126L7.55245 8.36024L5.65177 6.45956Z" fill="white"/>
</g>
<defs>
<clipPath id="clip0_4_6042">
<rect width="14" height="14" fill="white"/>
</clipPath>
</defs>
</svg>
