<svg width="8" height="8" viewBox="0 0 8 8" fill="none" xmlns="http://www.w3.org/2000/svg">
<path d="M4.93203 3.99281L7.77578 1.14906C8.02953 0.895312 8.02953 0.475312 7.77578 0.221562C7.52203 -0.0321875 7.10203 -0.0321875 6.84828 0.221562L4.00453 3.06531L1.16078 0.221562C0.907032 -0.0321875 0.487031 -0.0321875 0.233281 0.221562C-0.0204687 0.475312 -0.0204687 0.895312 0.233281 1.14906L3.07703 3.99281L0.233281 6.83656C-0.0204687 7.09031 -0.0204687 7.51031 0.233281 7.76406C0.364531 7.89531 0.53078 7.95656 0.69703 7.95656C0.86328 7.95656 1.02953 7.89531 1.16078 7.76406L4.00453 4.92031L6.84828 7.76406C6.97953 7.89531 7.14578 7.95656 7.31203 7.95656C7.47828 7.95656 7.64453 7.89531 7.77578 7.76406C8.02953 7.51031 8.02953 7.09031 7.77578 6.83656L4.93203 3.99281Z" fill="#ffff"/>
</svg>
