<svg width="734" height="734" viewBox="0 0 734 734" fill="none" xmlns="http://www.w3.org/2000/svg">
<path d="M433.667 400.334C433.813 411.601 435.404 422.804 438.4 433.667H295.6C298.596 422.804 300.187 411.601 300.333 400.334H433.667ZM317 267H417C429.492 267.045 441.813 269.914 453.04 275.392C464.267 280.87 474.11 288.815 481.833 298.634C490.353 291.406 499.749 285.28 509.8 280.4C499.021 265.942 485.024 254.191 468.916 246.08C452.809 237.968 435.034 233.719 417 233.667H317C298.966 233.719 281.191 237.968 265.084 246.08C248.977 254.191 234.979 265.942 224.2 280.4C234.263 285.277 243.67 291.403 252.2 298.634C259.92 288.819 269.758 280.877 280.979 275.399C292.2 269.921 304.514 267.05 317 267ZM267 100.334C267 80.5554 272.865 61.2214 283.853 44.7765C294.841 28.3316 310.459 15.5144 328.732 7.94559C347.004 0.376825 367.111 -1.60351 386.509 2.25501C405.907 6.11353 423.726 15.6376 437.711 29.6229C451.696 43.6081 461.22 61.4264 465.079 80.8245C468.937 100.223 466.957 120.329 459.388 138.602C451.819 156.874 439.002 172.492 422.557 183.48C406.112 194.469 386.778 200.334 367 200.334C340.487 200.307 315.067 189.763 296.319 171.015C277.571 152.267 267.027 126.847 267 100.334ZM300.333 100.334C300.333 113.519 304.243 126.408 311.569 137.372C318.894 148.335 329.306 156.88 341.488 161.926C353.67 166.971 367.074 168.292 380.006 165.719C392.938 163.147 404.817 156.797 414.141 147.474C423.464 138.15 429.813 126.272 432.386 113.34C434.958 100.407 433.638 87.0031 428.592 74.8213C423.546 62.6396 415.001 52.2277 404.038 44.9022C393.075 37.5768 380.186 33.6669 367 33.6669C349.324 33.6845 332.378 40.714 319.879 53.2126C307.381 65.7112 300.351 82.6579 300.333 100.334ZM117 533.667H217C247.931 533.702 277.585 546.005 299.457 567.877C321.329 589.748 333.632 619.402 333.667 650.334V733.667H0.333496V650.334C0.368785 619.402 12.6718 589.748 34.5434 567.877C56.4149 546.005 86.0691 533.702 117 533.667ZM117 567C94.9069 567.027 73.7261 575.815 58.1038 591.437C42.4815 607.06 33.6933 628.24 33.6668 650.334V700.334H300.333V650.334C300.307 628.24 291.519 607.06 275.897 591.437C260.274 575.815 239.093 567.027 217 567H117ZM167 500.334C147.222 500.334 127.888 494.469 111.443 483.48C94.9982 472.492 82.181 456.874 74.6122 438.602C67.0434 420.329 65.0631 400.223 68.9216 380.824C72.7802 361.426 82.3042 343.608 96.2895 329.623C110.275 315.638 128.093 306.114 147.491 302.255C166.889 298.396 186.996 300.377 205.268 307.946C223.541 315.514 239.159 328.332 250.147 344.776C261.135 361.221 267 380.555 267 400.334C266.974 426.847 256.429 452.267 237.682 471.015C218.934 489.763 193.514 500.307 167 500.334ZM167 467C180.186 467 193.075 463.09 204.038 455.765C215.001 448.439 223.546 438.027 228.592 425.846C233.638 413.664 234.958 400.26 232.386 387.327C229.813 374.395 223.464 362.517 214.141 353.193C204.817 343.87 192.938 337.52 180.006 334.948C167.074 332.375 153.67 333.696 141.488 338.742C129.306 343.787 118.894 352.332 111.569 363.296C104.243 374.259 100.333 387.148 100.333 400.334C100.351 418.009 107.381 434.956 119.879 447.454C132.378 459.953 149.324 466.983 167 467ZM733.667 650.334V733.667H400.333V650.334C400.369 619.402 412.672 589.748 434.543 567.877C456.415 546.005 486.069 533.702 517 533.667H617C647.931 533.702 677.585 546.005 699.457 567.877C721.329 589.748 733.632 619.402 733.667 650.334ZM700.333 650.334C700.307 628.24 691.519 607.06 675.896 591.437C660.274 575.815 639.093 567.027 617 567H517C494.907 567.027 473.726 575.815 458.104 591.437C442.481 607.06 433.693 628.24 433.667 650.334V700.334H700.333V650.334ZM667 400.334C667 420.112 661.135 439.446 650.147 455.891C639.159 472.335 623.541 485.153 605.268 492.721C586.996 500.29 566.889 502.271 547.491 498.412C528.093 494.554 510.275 485.029 496.289 471.044C482.304 457.059 472.78 439.241 468.922 419.843C465.063 400.444 467.043 380.338 474.612 362.065C482.181 343.793 494.998 328.175 511.443 317.187C527.888 306.198 547.222 300.334 567 300.334C593.514 300.36 618.934 310.904 637.682 329.652C656.429 348.4 666.974 373.82 667 400.334ZM633.667 400.334C633.667 387.148 629.757 374.259 622.431 363.296C615.106 352.332 604.694 343.787 592.512 338.742C580.331 333.696 566.926 332.375 553.994 334.948C541.062 337.52 529.183 343.87 519.86 353.193C510.536 362.517 504.187 374.395 501.614 387.327C499.042 400.26 500.362 413.664 505.408 425.846C510.454 438.027 518.999 448.439 529.962 455.765C540.925 463.09 553.815 467 567 467C584.676 466.983 601.623 459.953 614.121 447.454C626.62 434.956 633.649 418.009 633.667 400.334Z" fill="white"/>
</svg>
