<svg width="800" height="534" viewBox="0 0 800 534" fill="none" xmlns="http://www.w3.org/2000/svg">
<path fill-rule="evenodd" clip-rule="evenodd" d="M533.333 67.0002C478.107 67.0002 433.333 111.772 433.333 167C433.333 222.23 478.107 267 533.333 267C588.563 267 633.333 222.23 633.333 167C633.333 111.772 588.563 67.0002 533.333 67.0002ZM366.667 167C366.667 74.9528 441.287 0.333496 533.333 0.333496C625.38 0.333496 700 74.9528 700 167C700 210.977 682.967 250.977 655.14 280.76C716.503 300.747 763.92 340.31 794.213 384.763C804.58 399.977 800.65 420.713 785.437 431.08C770.227 441.447 749.487 437.517 739.12 422.303C706.597 374.577 647.26 333.667 566.667 333.667C438.867 333.667 366.667 436.14 366.667 500.333C366.667 518.743 351.743 533.667 333.333 533.667C314.924 533.667 300 518.743 300 500.333C300 477.267 305.283 452.667 315.361 428.417C312.793 426.77 310.41 424.743 308.296 422.34C280.935 391.207 238.472 367 183.334 367C128.195 367 85.733 391.207 58.3713 422.34C46.2183 436.167 25.1564 437.523 11.3285 425.37C-2.49936 413.217 -3.85697 392.157 8.29619 378.327C26.9678 357.083 50.5947 338.213 78.575 324.357C50.663 297.117 33.3337 259.083 33.3337 217C33.3337 134.157 100.491 67.0002 183.334 67.0002C266.176 67.0002 333.333 134.157 333.333 217C333.333 259.083 316.004 297.117 288.093 324.357C312.173 336.283 333.028 351.92 350.277 369.59C371.733 342.53 399.62 318.273 433.073 300.15C392.74 269.73 366.667 221.41 366.667 167ZM100 217C100 170.976 137.31 133.667 183.334 133.667C229.357 133.667 266.667 170.976 266.667 217C266.667 263.023 229.357 300.333 183.334 300.333C137.31 300.333 100 263.023 100 217Z" fill="white"/>
</svg>
