<svg xmlns="http://www.w3.org/2000/svg" xmlns:xlink="http://www.w3.org/1999/xlink" width="392" zoomAndPan="magnify" viewBox="0 0 294 130.499996" height="174" preserveAspectRatio="xMidYMid meet" version="1.0"><defs><g/><clipPath id="f19a11baef"><path d="M 91 0.0898438 L 169 0.0898438 L 169 65 L 91 65 Z M 91 0.0898438 " clip-rule="nonzero"/></clipPath><clipPath id="7eb14c1efa"><path d="M 166 0.0898438 L 203 0.0898438 L 203 65 L 166 65 Z M 166 0.0898438 " clip-rule="nonzero"/></clipPath><clipPath id="ccd8bbef5a"><path d="M 199 9 L 226.949219 9 L 226.949219 56 L 199 56 Z M 199 9 " clip-rule="nonzero"/></clipPath><clipPath id="3c39b7d5a3"><path d="M 67.058594 9 L 95 9 L 95 57 L 67.058594 57 Z M 67.058594 9 " clip-rule="nonzero"/></clipPath></defs><g clip-path="url(#f19a11baef)"><path fill="#ffffff" d="M 167.234375 40.960938 C 170.964844 36.90625 166.730469 16.042969 160.910156 26.71875 C 160.933594 26.976562 161.410156 27.058594 161.601562 27.179688 C 162.128906 27.445312 162.566406 27.828125 162.914062 28.332031 C 163.363281 28.992188 163.527344 29.820312 163.527344 30.609375 C 163.507812 30.84375 163.261719 30.851562 163.078125 30.871094 C 152.535156 31.148438 141.988281 31.078125 131.441406 30.945312 C 130.886719 31.015625 130.90625 30.535156 130.917969 30.105469 C 130.917969 28.273438 131.671875 27.785156 133.199219 27.097656 C 133.070312 26.589844 131.761719 25.03125 131.492188 24.644531 C 131.203125 24.320312 130.863281 24.007812 130.441406 23.894531 C 124.757812 23.203125 123.855469 38.457031 127.023438 41.554688 C 122.527344 39.792969 120.25 34.589844 120.835938 29.945312 C 120.871094 29.03125 121.484375 28.367188 121.941406 27.636719 C 123.339844 25.503906 124.648438 23.300781 125.847656 21.046875 C 126.023438 20.65625 126.300781 20.277344 126.324219 19.84375 C 126.183594 15.839844 125.28125 9.222656 121.554688 7.046875 C 121.351562 6.984375 120.953125 6.777344 121.378906 6.65625 C 122.726562 6.4375 123.953125 7.578125 124.546875 8.699219 C 124.878906 9.390625 125.148438 10.113281 125.410156 10.835938 C 125.449219 10.921875 125.472656 11.039062 125.5625 11.089844 C 125.214844 7.5625 123.554688 0.449219 119.121094 0.445312 C 116.25 0.320312 112.082031 0.304688 109.910156 2.4375 C 109.699219 2.625 109.570312 3.101562 109.277344 3.125 C 105.855469 2.210938 101.511719 2.300781 98.339844 3.945312 C 89.503906 13.074219 90.335938 36.90625 92.632812 48.875 C 93.65625 53.351562 94.511719 58.296875 97.433594 61.960938 C 100.574219 64.507812 105.480469 64.050781 109.171875 63.105469 C 109.890625 62.738281 109.722656 63.480469 111 63.980469 C 113.558594 65.011719 116.390625 64.980469 119.097656 64.824219 C 123.054688 64.738281 124.15625 60.019531 125.125 56.902344 C 125.226562 56.621094 125.722656 54.019531 125.214844 55.566406 C 124.582031 57.953125 122.636719 61.441406 119.726562 59.929688 C 119.613281 59.847656 119.585938 59.679688 119.753906 59.675781 C 121.085938 59.746094 122.363281 59.121094 123.039062 57.945312 C 124.628906 55.296875 125.585938 52.222656 125.957031 49.160156 C 126.03125 48.722656 126.042969 48.28125 126.078125 47.839844 C 126.097656 47.449219 125.867188 47.097656 125.695312 46.769531 C 125.089844 45.714844 124.417969 44.691406 123.890625 43.601562 C 123.863281 43.496094 123.984375 43.425781 124.078125 43.449219 C 124.5 43.507812 124.925781 43.472656 125.34375 43.421875 C 126.179688 43.285156 126.941406 42.722656 127.367188 41.996094 C 127.488281 41.535156 127.980469 41.84375 128.296875 41.863281 C 130.9375 42.390625 131.191406 41.652344 132.71875 39.761719 C 132.804688 39.675781 132.828125 39.507812 132.726562 39.421875 C 131.976562 38.84375 131.113281 38.445312 130.359375 37.871094 C 130.203125 37.71875 128.785156 36.886719 129.664062 36.871094 C 133.40625 37 141.941406 37.789062 142.480469 37.847656 C 142.644531 37.871094 142.808594 37.921875 142.945312 38.019531 C 140.699219 38.105469 138.171875 37.851562 135.988281 38.046875 C 137.324219 38.542969 138.867188 38.574219 140.289062 38.789062 C 146.144531 39.546875 152.164062 39.449219 157.917969 38.0625 C 159.71875 37.585938 157.726562 37.710938 157.15625 37.738281 C 155.722656 37.808594 152.316406 37.855469 152.113281 37.734375 C 155.726562 37.117188 159.421875 36.914062 163.082031 36.785156 C 163.320312 36.800781 164.160156 36.636719 164.007812 37.066406 C 163.242188 38.492188 160.75 39.195312 161.152344 39.609375 C 161.871094 40.476562 162.472656 41.75 163.707031 41.910156 C 164.730469 41.949219 166.632812 41.875 167.234375 40.960938 Z M 119.382812 13.824219 C 121.546875 8.839844 122.984375 12.375 123.90625 15.554688 C 123.929688 15.8125 123.625 15.863281 123.449219 15.957031 C 119.929688 17.664062 119.09375 23.273438 118.605469 26.824219 C 118.554688 26.996094 118.605469 27.769531 118.472656 27.777344 C 117.320312 23.472656 117.847656 18.066406 119.382812 13.824219 Z M 99.800781 18.207031 C 99.601562 19.828125 99.332031 21.4375 99.210938 23.066406 C 99.0625 24.792969 99.132812 24.226562 97.632812 24.5 C 96.375 24.65625 95.113281 24.820312 93.859375 25.011719 C 93.410156 25.019531 92.902344 25.289062 92.476562 25.121094 C 92.328125 24.945312 92.425781 24.722656 92.417969 24.507812 C 92.65625 22.519531 92.8125 20.488281 93.28125 18.535156 C 93.417969 18.324219 93.703125 18.335938 93.925781 18.304688 C 94.492188 18.273438 95.046875 18.160156 95.605469 18.117188 C 96.421875 18.011719 97.246094 17.972656 98.0625 17.878906 C 98.578125 17.820312 99.09375 17.789062 99.609375 17.792969 C 99.820312 17.808594 99.824219 18.046875 99.800781 18.207031 Z M 107.71875 4.867188 C 107.902344 4.753906 108.082031 4.625 108.285156 4.554688 C 108.386719 4.539062 108.46875 4.648438 108.425781 4.746094 C 101.746094 19.835938 102.585938 46.445312 108.773438 61.636719 C 97.273438 56.152344 97.472656 12.09375 107.71875 4.867188 Z M 112.78125 24.027344 C 112.746094 24.449219 111.984375 24.195312 111.703125 24.179688 C 109.746094 23.953125 107.777344 23.769531 105.8125 23.601562 C 105.535156 23.59375 105.230469 23.542969 105.265625 23.1875 C 105.351562 21.507812 105.542969 19.828125 105.816406 18.167969 C 106.199219 15.453125 105.699219 16.292969 108.285156 16.242188 C 109.476562 16.242188 110.390625 16.382812 111.523438 16.410156 C 112.109375 16.429688 112.695312 16.453125 113.277344 16.554688 C 113.390625 16.570312 113.484375 16.699219 113.476562 16.828125 C 113.167969 19.21875 112.972656 21.621094 112.78125 24.027344 Z M 114.429688 36.6875 C 113.066406 27.453125 113.601562 12.535156 118.582031 4.398438 C 118.6875 4.292969 118.730469 4.488281 118.703125 4.570312 C 117.050781 8.707031 116.539062 13.1875 115.777344 17.550781 C 115.261719 20.4375 114.878906 23.339844 114.632812 26.265625 C 114.285156 29.726562 114.410156 33.238281 114.429688 36.6875 Z M 119.6875 61.304688 C 119.675781 61.890625 118.621094 60.664062 118.496094 60.519531 C 115.816406 58.429688 114.015625 45.449219 115.054688 49.089844 C 116.074219 53.308594 117.265625 57.660156 119.6875 61.304688 Z M 119.949219 54 C 117.976562 52.074219 117.691406 49 117.273438 46.398438 C 116.972656 45.492188 116.78125 36.714844 117.695312 41.785156 C 118.394531 45.210938 119.742188 49.121094 123.457031 50.179688 C 123.589844 50.21875 123.746094 50.34375 123.730469 50.488281 C 123.503906 52.203125 122.074219 55.363281 119.949219 54 Z M 119.949219 54 " fill-opacity="1" fill-rule="nonzero"/></g><g clip-path="url(#7eb14c1efa)"><path fill="#ffffff" d="M 198.949219 9.558594 C 197.183594 3.195312 192.898438 1.972656 186.808594 2.441406 C 186.414062 2.519531 184.96875 2.71875 184.648438 2.800781 C 184.527344 2.832031 184.414062 2.78125 184.328125 2.679688 C 182.734375 0.355469 179.421875 0.371094 176.878906 0.148438 C 175.558594 0.175781 173.789062 -0.0429688 172.640625 0.648438 C 169.941406 2.570312 168.34375 8.03125 168.214844 11.222656 C 168.980469 9.292969 169.285156 7.203125 171.652344 6.589844 C 171.925781 6.503906 173.027344 6.484375 172.285156 6.875 C 168.851562 8.871094 168.238281 13.726562 167.597656 17.316406 C 167.589844 18.1875 167.335938 19.09375 167.527344 19.953125 C 168.996094 23.238281 171.324219 26.070312 172.996094 29.222656 C 174.023438 34.097656 171.585938 39.382812 167.023438 41.496094 C 166.847656 41.640625 166.414062 41.753906 166.554688 42.046875 C 167.417969 43.238281 168.410156 43.519531 169.824219 43.445312 C 170.019531 43.464844 169.933594 43.699219 169.84375 43.796875 C 169.09375 44.773438 168.472656 45.855469 167.851562 46.917969 C 166.523438 49.175781 169.738281 59.683594 174.015625 59.527344 C 174.414062 59.71875 173.582031 59.910156 173.449219 59.949219 C 170.121094 60.707031 169.0625 56.875 168.292969 54.433594 C 168.980469 58.34375 170.253906 64.75 175.703125 64.71875 C 178.5 64.703125 181.804688 64.800781 184.078125 62.9375 C 184.257812 62.699219 184.554688 62.757812 184.800781 62.839844 C 188.417969 63.777344 193.011719 63.890625 196.183594 61.683594 C 197.984375 60.191406 199.265625 55.859375 199.945312 53.59375 C 203.664062 39.246094 203.683594 23.667969 198.949219 9.558594 Z M 172.636719 17.820312 C 172.027344 17.015625 171.300781 16.183594 170.351562 15.792969 C 170.207031 15.742188 169.992188 15.640625 170.023438 15.453125 C 170.308594 14.574219 171.355469 11.0625 172.429688 11.21875 C 176.363281 13.34375 176.53125 23.910156 175.589844 27.8125 C 175.324219 28.019531 175.371094 27.042969 175.339844 26.90625 C 175 23.792969 174.40625 20.496094 172.636719 17.820312 Z M 173.742188 53.949219 C 171.574219 55.0625 170.402344 51.984375 170.078125 50.320312 C 170.070312 50.15625 170.195312 50.042969 170.335938 50.015625 C 170.707031 49.929688 171.058594 49.785156 171.414062 49.648438 C 175.382812 48.03125 175.640625 43.570312 176.820312 40.039062 C 176.929688 40.007812 176.910156 40.207031 176.921875 40.277344 C 176.9375 41.003906 176.96875 41.730469 176.972656 42.460938 C 176.972656 42.460938 176.96875 42.460938 176.96875 42.460938 C 176.792969 46.03125 176.546875 51.441406 173.742188 53.949219 Z M 179.316406 48.160156 C 178.765625 52.238281 177.902344 58.730469 174.34375 61.308594 C 174.121094 61.390625 174.164062 61.160156 174.261719 61.042969 C 177.019531 57.183594 177.949219 52.285156 179.269531 47.863281 C 179.34375 47.941406 179.308594 48.058594 179.316406 48.160156 Z M 180.15625 29.632812 C 180.039062 31.972656 180.050781 34.390625 179.519531 36.671875 C 179.707031 30.578125 179.4375 24.363281 178.285156 18.324219 C 177.433594 13.691406 176.988281 8.898438 175.261719 4.484375 C 175.195312 4.355469 174.992188 3.933594 175.316406 4.121094 C 179.582031 11.1875 180.203125 21.570312 180.15625 29.632812 Z M 183.886719 23.871094 C 180.511719 24.109375 181.355469 24.878906 181.027344 22.347656 C 180.917969 20.457031 180.675781 18.578125 180.433594 16.703125 C 180.417969 16.503906 180.617188 16.425781 180.785156 16.421875 C 182.609375 16.242188 184.441406 16.140625 186.273438 16.09375 C 186.722656 16.082031 187.167969 16.066406 187.613281 16.019531 C 187.84375 16.011719 187.902344 16.273438 187.925781 16.457031 C 188.285156 18.527344 188.535156 20.613281 188.746094 22.703125 C 188.769531 22.949219 188.855469 23.347656 188.515625 23.402344 C 187 23.554688 185.378906 23.660156 183.886719 23.871094 Z M 193.746094 34.234375 C 193.121094 43.257812 193.28125 54.636719 186.058594 61.097656 C 184.605469 62.007812 185.246094 61.226562 185.648438 60.296875 C 188.011719 54.652344 188.941406 48.535156 189.605469 42.496094 C 190.664062 29.785156 190.5 16.195312 185.464844 4.351562 C 192.746094 8.375 193.808594 26.523438 193.746094 34.234375 Z M 195.449219 24.203125 C 195.199219 24.160156 194.789062 24.226562 194.699219 23.925781 C 194.488281 22.203125 194.386719 20.464844 194.046875 18.761719 C 193.984375 18.457031 193.957031 18.148438 193.90625 17.839844 C 193.894531 17.746094 193.980469 17.636719 194.070312 17.632812 C 195.800781 17.710938 197.535156 17.921875 199.265625 18.058594 C 200.496094 18.148438 200.292969 18.195312 200.523438 19.347656 C 200.808594 20.976562 201.046875 22.617188 201.230469 24.265625 C 201.226562 24.265625 201.226562 24.265625 201.226562 24.265625 C 201.222656 24.472656 201.378906 24.980469 201.039062 24.964844 C 200.507812 24.863281 196.785156 24.292969 195.449219 24.203125 Z M 195.449219 24.203125 " fill-opacity="1" fill-rule="nonzero"/></g><g clip-path="url(#ccd8bbef5a)"><path fill="#ffffff" d="M 226.902344 31.0625 C 226.695312 29.496094 225.621094 28.0625 224.089844 27.609375 C 222.613281 27.328125 221.078125 27.472656 219.582031 27.339844 C 217.046875 27.140625 214.507812 27.003906 211.96875 26.824219 C 210.671875 26.71875 210.933594 26.875 210.675781 25.628906 C 209.984375 20.9375 208.878906 16.199219 206.726562 11.945312 C 205.835938 10.410156 203.324219 9.992188 201.714844 9.605469 C 201.136719 9.484375 200.550781 9.417969 199.96875 9.316406 C 199.742188 9.28125 199.082031 9.125 199.210938 9.453125 C 206.726562 23.546875 206.457031 41.578125 199.6875 55.875 C 199.765625 55.941406 199.847656 55.972656 199.945312 55.953125 C 202.191406 55.671875 204.472656 55.15625 206.453125 54.015625 C 209.257812 50.75 210.21875 43.109375 210.917969 38.785156 C 211.023438 38.457031 211.765625 38.664062 212.042969 38.652344 C 212.488281 38.695312 212.9375 38.71875 213.382812 38.734375 C 216.300781 38.886719 219.167969 39.1875 222.085938 39.398438 C 225.929688 39.757812 227.15625 34.019531 226.902344 31.0625 Z M 205.730469 25.257812 C 205.433594 24.035156 205.402344 22.742188 205.105469 21.515625 C 204.941406 21.03125 205.347656 21.085938 205.683594 21.148438 C 206.84375 21.320312 208.007812 21.492188 209.175781 21.597656 C 209.734375 21.671875 210.042969 25.417969 210.179688 26.097656 C 210.09375 26.34375 205.894531 25.625 205.730469 25.257812 Z M 223.667969 37.605469 C 222.84375 38.382812 219.128906 37.820312 217.890625 37.738281 C 216.136719 37.53125 214.371094 37.347656 212.644531 37.003906 C 212.582031 36.988281 212.527344 36.914062 212.65625 36.914062 C 214.253906 36.847656 215.855469 36.863281 217.453125 36.851562 C 217.453125 36.851562 217.453125 36.851562 217.453125 36.855469 C 218.058594 36.882812 224.128906 36.777344 223.667969 37.605469 Z M 225.296875 31.847656 C 222.890625 30.949219 213.445312 31.160156 211.335938 31.121094 C 210.96875 30.992188 211.132812 30.3125 211.074219 29.996094 C 211.078125 29.996094 211.078125 29.996094 211.078125 29.996094 C 211.101562 29.648438 210.824219 28.917969 211.386719 28.9375 C 214.226562 28.878906 217.070312 28.871094 219.914062 28.792969 C 223.140625 28.707031 225.789062 28.117188 225.789062 31.898438 C 225.691406 32.125 225.445312 31.890625 225.296875 31.847656 Z M 225.296875 31.847656 " fill-opacity="1" fill-rule="nonzero"/></g><g clip-path="url(#3c39b7d5a3)"><path fill="#ffffff" d="M 93.925781 10.523438 C 94.09375 10.152344 94.503906 9.597656 94.160156 9.554688 C 92.070312 9.769531 89.882812 10.144531 88.011719 11.15625 C 86.824219 11.898438 86.449219 13.363281 85.917969 14.582031 C 84.535156 18.144531 83.699219 21.777344 83.199219 25.613281 C 83.066406 26.03125 83.269531 26.84375 82.632812 26.847656 C 78.976562 27.109375 75.316406 27.632812 71.648438 27.683594 C 67.089844 27.203125 66.28125 32.648438 67.695312 35.929688 C 68.613281 38.382812 69.984375 40.296875 72.878906 39.613281 C 75.996094 39.289062 79.113281 39.015625 82.238281 38.792969 C 82.457031 38.777344 82.777344 38.695312 82.859375 38.976562 C 83.582031 43.871094 84.402344 48.941406 86.59375 53.378906 C 87.101562 54.332031 88.117188 54.699219 89.0625 55.054688 C 90.378906 55.542969 91.742188 55.832031 93.128906 56.007812 C 94.171875 56.105469 94.347656 56.242188 93.761719 55.152344 C 87.441406 41.375 87.304688 24.214844 93.925781 10.523438 Z M 81.292969 37.167969 C 78.574219 37.699219 75.804688 38.015625 73.042969 38.226562 C 72.386719 38.28125 71.722656 38.265625 71.074219 38.148438 C 67.667969 37.191406 76.328125 36.984375 76.941406 37.058594 C 76.941406 37.058594 76.941406 37.0625 76.941406 37.0625 C 78.410156 37.101562 79.921875 36.921875 81.371094 37.082031 C 81.371094 37.121094 81.34375 37.15625 81.292969 37.167969 Z M 82.671875 30.949219 C 82.660156 31.410156 82.09375 31.242188 81.789062 31.28125 C 78.542969 31.292969 75.292969 31.269531 72.050781 31.425781 C 68.519531 31.457031 67.960938 33.316406 68.347656 31.085938 C 68.480469 29.757812 69.09375 29.027344 70.472656 29.078125 C 72.449219 29.0625 76.398438 29.09375 76.398438 29.09375 C 78.445312 29.109375 80.496094 29.054688 82.535156 29.105469 C 82.644531 29.121094 82.738281 29.277344 82.726562 29.390625 C 82.710938 29.910156 82.691406 30.429688 82.671875 30.949219 Z M 88.722656 21.492188 C 88.527344 22.722656 88.320312 23.949219 88.175781 25.183594 C 88.136719 25.773438 87.175781 25.574219 86.753906 25.726562 C 86.105469 25.828125 85.449219 25.929688 84.808594 26.085938 C 84.519531 26.082031 83.613281 26.539062 83.613281 26.050781 C 83.800781 24.71875 83.953125 23.375 84.277344 22.066406 C 84.34375 21.839844 84.609375 21.792969 84.8125 21.75 C 85.207031 21.714844 85.601562 21.613281 86 21.570312 C 86.792969 21.492188 87.582031 21.320312 88.378906 21.246094 C 88.539062 21.21875 88.753906 21.289062 88.722656 21.492188 Z M 88.722656 21.492188 " fill-opacity="1" fill-rule="nonzero"/></g><path fill="#ffffff" d="M 134.5 28.140625 C 142.609375 28.277344 150.925781 28.339844 158.945312 28.015625 C 152.0625 24.753906 143.710938 25.949219 136.441406 27.410156 C 136.207031 27.515625 134.023438 27.9375 134.5 28.140625 Z M 134.5 28.140625 " fill-opacity="1" fill-rule="nonzero"/><g fill="#ffffff" fill-opacity="1"><g transform="translate(22.676936, 105.263446)"><g><path d="M 19.640625 -28.71875 C 22.867188 -28.550781 25.335938 -27.734375 27.046875 -26.265625 C 28.765625 -24.804688 29.332031 -22.734375 28.75 -20.046875 L 28.625 -19.546875 L 20.125 -19.546875 L 20.171875 -19.71875 C 20.273438 -20.039062 20.304688 -20.351562 20.265625 -20.65625 C 20.222656 -20.957031 20.128906 -21.234375 19.984375 -21.484375 C 19.835938 -21.734375 19.613281 -21.945312 19.3125 -22.125 C 19.007812 -22.300781 18.640625 -22.429688 18.203125 -22.515625 Z M 14.828125 -28.515625 L 13.015625 -20.75 C 12.910156 -20.25 13.054688 -19.820312 13.453125 -19.46875 C 13.847656 -19.113281 14.40625 -18.835938 15.125 -18.640625 C 15.851562 -18.453125 16.679688 -18.25 17.609375 -18.03125 C 18.546875 -17.8125 19.515625 -17.597656 20.515625 -17.390625 C 21.515625 -17.191406 22.457031 -16.878906 23.34375 -16.453125 C 24.238281 -16.023438 25.015625 -15.53125 25.671875 -14.96875 C 26.328125 -14.40625 26.789062 -13.644531 27.0625 -12.6875 C 27.34375 -11.726562 27.347656 -10.617188 27.078125 -9.359375 C 26.410156 -6.515625 25.070312 -4.296875 23.0625 -2.703125 C 21.050781 -1.117188 18.550781 -0.125 15.5625 0.28125 L 17.453125 -7.890625 C 17.566406 -8.347656 17.425781 -8.75 17.03125 -9.09375 C 16.632812 -9.4375 16.066406 -9.703125 15.328125 -9.890625 C 14.585938 -10.085938 13.742188 -10.296875 12.796875 -10.515625 C 11.847656 -10.734375 10.875 -10.957031 9.875 -11.1875 C 8.875 -11.425781 7.925781 -11.765625 7.03125 -12.203125 C 6.144531 -12.640625 5.378906 -13.171875 4.734375 -13.796875 C 4.097656 -14.429688 3.65625 -15.238281 3.40625 -16.21875 C 3.164062 -17.207031 3.191406 -18.375 3.484375 -19.71875 C 4.085938 -22.289062 5.398438 -24.296875 7.421875 -25.734375 C 9.453125 -27.171875 11.921875 -28.097656 14.828125 -28.515625 Z M 12.234375 -6 L 10.765625 0.453125 C 9.523438 0.398438 8.410156 0.296875 7.421875 0.140625 C 6.441406 -0.00390625 5.515625 -0.238281 4.640625 -0.5625 C 3.765625 -0.894531 3.03125 -1.316406 2.4375 -1.828125 C 1.851562 -2.335938 1.363281 -2.953125 0.96875 -3.671875 C 0.570312 -4.398438 0.375 -5.25 0.375 -6.21875 C 0.375 -7.195312 0.484375 -8.316406 0.703125 -9.578125 L 9.28125 -9.578125 C 9.03125 -8.671875 9.019531 -7.957031 9.25 -7.4375 C 9.488281 -6.914062 9.84375 -6.554688 10.3125 -6.359375 C 10.78125 -6.171875 11.421875 -6.050781 12.234375 -6 Z M 12.234375 -6 "/></g></g></g><g fill="#ffffff" fill-opacity="1"><g transform="translate(52.329239, 105.263446)"><g><path d="M 15.40625 -28.265625 L 8.921875 0 L -0.15625 0 L 6.328125 -28.265625 Z M 18.609375 -21.4375 L 20.171875 -28.265625 L 22.1875 -28.265625 C 23.9375 -28.265625 25.414062 -27.859375 26.625 -27.046875 C 27.832031 -26.242188 28.644531 -25.132812 29.0625 -23.71875 C 29.488281 -22.3125 29.5 -20.734375 29.09375 -18.984375 L 28.96875 -18.4375 C 28.363281 -15.757812 27.015625 -13.535156 24.921875 -11.765625 C 22.828125 -10.003906 20.453125 -9.125 17.796875 -9.125 L 15.78125 -9.125 L 17.34375 -15.859375 C 18.625 -16.179688 19.429688 -17.054688 19.765625 -18.484375 L 19.84375 -18.8125 C 20.175781 -20.238281 19.765625 -21.113281 18.609375 -21.4375 Z M 18.609375 -21.4375 "/></g></g></g><g fill="#ffffff" fill-opacity="1"><g transform="translate(81.981541, 105.263446)"><g><path d="M 7.921875 -0.28125 C 5.128906 -1.164062 3.207031 -2.769531 2.15625 -5.09375 C 1.101562 -7.414062 1 -10.425781 1.84375 -14.125 C 2.695312 -17.820312 4.191406 -20.832031 6.328125 -23.15625 C 8.460938 -25.488281 11.132812 -27.09375 14.34375 -27.96875 Z M 17.703125 -21.890625 L 19.265625 -28.75 L 20.453125 -28.75 C 25.328125 -28.75 28.804688 -27.503906 30.890625 -25.015625 C 32.972656 -22.523438 33.460938 -18.894531 32.359375 -14.125 C 31.265625 -9.363281 29.101562 -5.734375 25.875 -3.234375 C 22.644531 -0.742188 18.59375 0.5 13.71875 0.5 C 13.175781 0.5 12.78125 0.484375 12.53125 0.453125 L 14.09375 -6.359375 C 14.582031 -6.304688 14.976562 -6.28125 15.28125 -6.28125 C 17.226562 -6.28125 18.847656 -6.867188 20.140625 -8.046875 C 21.441406 -9.222656 22.328125 -10.8125 22.796875 -12.8125 L 23.375 -15.453125 C 23.84375 -17.441406 23.695312 -19.023438 22.9375 -20.203125 C 22.1875 -21.390625 20.835938 -21.984375 18.890625 -21.984375 C 18.585938 -21.984375 18.191406 -21.953125 17.703125 -21.890625 Z M 17.703125 -21.890625 "/></g></g></g><g fill="#ffffff" fill-opacity="1"><g transform="translate(116.192578, 105.263446)"><g><path d="M 20.671875 -17.34375 C 21.273438 -17.851562 21.664062 -18.476562 21.84375 -19.21875 C 22.019531 -19.957031 21.914062 -20.570312 21.53125 -21.0625 C 21.144531 -21.5625 20.597656 -21.8125 19.890625 -21.8125 L 17.296875 -21.8125 L 18.78125 -28.265625 L 23.625 -28.265625 C 26.632812 -28.265625 28.78125 -27.425781 30.0625 -25.75 C 31.351562 -24.082031 31.726562 -22.03125 31.1875 -19.59375 C 30.769531 -17.863281 29.929688 -16.300781 28.671875 -14.90625 C 27.410156 -13.507812 25.820312 -12.484375 23.90625 -11.828125 L 27.484375 0 L 17.296875 0 L 14.671875 -10.3125 L 16.109375 -16.59375 L 18.703125 -16.59375 C 19.410156 -16.59375 20.066406 -16.84375 20.671875 -17.34375 Z M 7.515625 0 L -0.15625 0 L 6.328125 -28.265625 L 14.015625 -28.265625 Z M 7.515625 0 "/></g></g></g><g fill="#ffffff" fill-opacity="1"><g transform="translate(148.144787, 105.263446)"><g><path d="M 31.796875 -28.265625 L 30.15625 -21.03125 L 25.671875 -21.03125 L 27.3125 -28.265625 Z M 20.90625 -21.03125 L 16.0625 0 L 6.984375 0 L 11.828125 -21.03125 L 2.546875 -21.03125 L 4.1875 -28.265625 L 22.546875 -28.265625 Z M 20.90625 -21.03125 "/></g></g></g><g fill="#ffffff" fill-opacity="1"><g transform="translate(177.797089, 105.263446)"><g><path d="M 34.46875 -28.265625 L 27.984375 0 L 20.046875 0 L 14.828125 -8.21875 L 18.046875 -22.1875 L 22.921875 -14.34375 L 26.125 -28.265625 Z M 11.34375 -13.71875 L 8.1875 0 L -0.15625 0 L 6.328125 -28.265625 L 14.265625 -28.265625 L 14.59375 -27.765625 Z M 11.34375 -13.71875 "/></g></g></g><g fill="#ffffff" fill-opacity="1"><g transform="translate(212.008126, 105.263446)"><g><path d="M 8.921875 0 L -0.15625 0 L 6.328125 -28.265625 L 15.40625 -28.265625 Z M 13.6875 0 L 15.25 -6.78125 L 26.125 -6.78125 L 24.578125 0 Z M 20.171875 -28.265625 L 30.765625 -28.265625 L 29.21875 -21.484375 L 18.609375 -21.484375 Z M 16.234375 -11.09375 L 17.703125 -17.578125 L 26.09375 -17.578125 L 24.609375 -11.09375 Z M 16.234375 -11.09375 "/></g></g></g><g fill="#ffffff" fill-opacity="1"><g transform="translate(241.660417, 105.263446)"><g><path d="M 31.796875 -28.265625 L 30.15625 -21.03125 L 25.671875 -21.03125 L 27.3125 -28.265625 Z M 20.90625 -21.03125 L 16.0625 0 L 6.984375 0 L 11.828125 -21.03125 L 2.546875 -21.03125 L 4.1875 -28.265625 L 22.546875 -28.265625 Z M 20.90625 -21.03125 "/></g></g></g><g fill="#ffffff" fill-opacity="1"><g transform="translate(56.183599, 123.436998)"><g><path d="M 3.140625 -3.40625 C 2.273438 -3.65625 1.644531 -3.957031 1.25 -4.3125 C 0.851562 -4.675781 0.65625 -5.125 0.65625 -5.65625 C 0.65625 -6.257812 0.894531 -6.753906 1.375 -7.140625 C 1.863281 -7.535156 2.488281 -7.734375 3.25 -7.734375 C 3.78125 -7.734375 4.25 -7.628906 4.65625 -7.421875 C 5.0625 -7.222656 5.378906 -6.945312 5.609375 -6.59375 C 5.835938 -6.238281 5.953125 -5.847656 5.953125 -5.421875 L 4.9375 -5.421875 C 4.9375 -5.878906 4.789062 -6.238281 4.5 -6.5 C 4.207031 -6.769531 3.789062 -6.90625 3.25 -6.90625 C 2.757812 -6.90625 2.375 -6.796875 2.09375 -6.578125 C 1.8125 -6.359375 1.671875 -6.054688 1.671875 -5.671875 C 1.671875 -5.359375 1.800781 -5.09375 2.0625 -4.875 C 2.332031 -4.664062 2.785156 -4.472656 3.421875 -4.296875 C 4.054688 -4.117188 4.550781 -3.921875 4.90625 -3.703125 C 5.269531 -3.484375 5.535156 -3.226562 5.703125 -2.9375 C 5.878906 -2.65625 5.96875 -2.320312 5.96875 -1.9375 C 5.96875 -1.320312 5.722656 -0.828125 5.234375 -0.453125 C 4.753906 -0.078125 4.113281 0.109375 3.3125 0.109375 C 2.78125 0.109375 2.285156 0.0078125 1.828125 -0.1875 C 1.378906 -0.394531 1.03125 -0.671875 0.78125 -1.015625 C 0.539062 -1.367188 0.421875 -1.769531 0.421875 -2.21875 L 1.4375 -2.21875 C 1.4375 -1.75 1.601562 -1.378906 1.9375 -1.109375 C 2.28125 -0.847656 2.738281 -0.71875 3.3125 -0.71875 C 3.84375 -0.71875 4.25 -0.828125 4.53125 -1.046875 C 4.8125 -1.265625 4.953125 -1.554688 4.953125 -1.921875 C 4.953125 -2.296875 4.820312 -2.585938 4.5625 -2.796875 C 4.300781 -3.003906 3.828125 -3.207031 3.140625 -3.40625 Z M 3.140625 -3.40625 "/></g></g></g><g fill="#ffffff" fill-opacity="1"><g transform="translate(68.005023, 123.436998)"><g><path d="M 1.890625 -2.984375 L 1.890625 0 L 0.890625 0 L 0.890625 -7.625 L 3.703125 -7.625 C 4.535156 -7.625 5.1875 -7.410156 5.65625 -6.984375 C 6.132812 -6.566406 6.375 -6.003906 6.375 -5.296875 C 6.375 -4.554688 6.140625 -3.984375 5.671875 -3.578125 C 5.210938 -3.179688 4.550781 -2.984375 3.6875 -2.984375 Z M 1.890625 -3.8125 L 3.703125 -3.8125 C 4.234375 -3.8125 4.644531 -3.9375 4.9375 -4.1875 C 5.226562 -4.445312 5.375 -4.8125 5.375 -5.28125 C 5.375 -5.738281 5.226562 -6.101562 4.9375 -6.375 C 4.644531 -6.644531 4.253906 -6.785156 3.765625 -6.796875 L 1.890625 -6.796875 Z M 1.890625 -3.8125 "/></g></g></g><g fill="#ffffff" fill-opacity="1"><g transform="translate(80.229803, 123.436998)"><g><path d="M 6.75 -3.5625 C 6.75 -2.820312 6.625 -2.171875 6.375 -1.609375 C 6.125 -1.054688 5.769531 -0.628906 5.3125 -0.328125 C 4.851562 -0.0351562 4.3125 0.109375 3.6875 0.109375 C 3.09375 0.109375 2.5625 -0.0351562 2.09375 -0.328125 C 1.632812 -0.628906 1.273438 -1.050781 1.015625 -1.59375 C 0.753906 -2.144531 0.625 -2.78125 0.625 -3.5 L 0.625 -4.046875 C 0.625 -4.785156 0.75 -5.4375 1 -6 C 1.257812 -6.5625 1.617188 -6.988281 2.078125 -7.28125 C 2.546875 -7.582031 3.082031 -7.734375 3.6875 -7.734375 C 4.300781 -7.734375 4.835938 -7.582031 5.296875 -7.28125 C 5.765625 -6.988281 6.125 -6.5625 6.375 -6 C 6.625 -5.445312 6.75 -4.796875 6.75 -4.046875 Z M 5.75 -4.0625 C 5.75 -4.96875 5.566406 -5.660156 5.203125 -6.140625 C 4.847656 -6.628906 4.34375 -6.875 3.6875 -6.875 C 3.050781 -6.875 2.550781 -6.628906 2.1875 -6.140625 C 1.820312 -5.660156 1.632812 -4.988281 1.625 -4.125 L 1.625 -3.5625 C 1.625 -2.6875 1.804688 -2 2.171875 -1.5 C 2.535156 -1 3.039062 -0.75 3.6875 -0.75 C 4.34375 -0.75 4.847656 -0.984375 5.203125 -1.453125 C 5.554688 -1.929688 5.738281 -2.613281 5.75 -3.5 Z M 5.75 -4.0625 "/></g></g></g><g fill="#ffffff" fill-opacity="1"><g transform="translate(93.062249, 123.436998)"><g><path d="M 3.6875 -3.09375 L 1.890625 -3.09375 L 1.890625 0 L 0.875 0 L 0.875 -7.625 L 3.40625 -7.625 C 4.269531 -7.625 4.929688 -7.425781 5.390625 -7.03125 C 5.847656 -6.644531 6.078125 -6.078125 6.078125 -5.328125 C 6.078125 -4.859375 5.945312 -4.445312 5.6875 -4.09375 C 5.4375 -3.738281 5.082031 -3.472656 4.625 -3.296875 L 6.421875 -0.0625 L 6.421875 0 L 5.34375 0 Z M 1.890625 -3.90625 L 3.4375 -3.90625 C 3.9375 -3.90625 4.332031 -4.035156 4.625 -4.296875 C 4.925781 -4.554688 5.078125 -4.898438 5.078125 -5.328125 C 5.078125 -5.804688 4.9375 -6.171875 4.65625 -6.421875 C 4.375 -6.671875 3.96875 -6.796875 3.4375 -6.796875 L 1.890625 -6.796875 Z M 1.890625 -3.90625 "/></g></g></g><g fill="#ffffff" fill-opacity="1"><g transform="translate(105.124642, 123.436998)"><g><path d="M 6.15625 -6.796875 L 3.703125 -6.796875 L 3.703125 0 L 2.703125 0 L 2.703125 -6.796875 L 0.25 -6.796875 L 0.25 -7.625 L 6.15625 -7.625 Z M 6.15625 -6.796875 "/></g></g></g><g fill="#ffffff" fill-opacity="1"><g transform="translate(116.982729, 123.436998)"><g/></g></g><g fill="#ffffff" fill-opacity="1"><g transform="translate(125.095301, 123.436998)"><g><path d="M 1.96875 0 L 0.953125 0 L 0.953125 -7.625 L 1.96875 -7.625 Z M 1.96875 0 "/></g></g></g><g fill="#ffffff" fill-opacity="1"><g transform="translate(133.469798, 123.436998)"><g><path d="M 6.75 0 L 5.734375 0 L 1.890625 -5.875 L 1.890625 0 L 0.890625 0 L 0.890625 -7.625 L 1.890625 -7.625 L 5.75 -1.71875 L 5.75 -7.625 L 6.75 -7.625 Z M 6.75 0 "/></g></g></g><g fill="#ffffff" fill-opacity="1"><g transform="translate(146.574645, 123.436998)"><g/></g></g><g fill="#ffffff" fill-opacity="1"><g transform="translate(154.687223, 123.436998)"><g><path d="M 6.75 0 L 5.734375 0 L 1.890625 -5.875 L 1.890625 0 L 0.890625 0 L 0.890625 -7.625 L 1.890625 -7.625 L 5.75 -1.71875 L 5.75 -7.625 L 6.75 -7.625 Z M 6.75 0 "/></g></g></g><g fill="#ffffff" fill-opacity="1"><g transform="translate(167.792076, 123.436998)"><g><path d="M 5.203125 -3.53125 L 1.890625 -3.53125 L 1.890625 -0.828125 L 5.734375 -0.828125 L 5.734375 0 L 0.890625 0 L 0.890625 -7.625 L 5.6875 -7.625 L 5.6875 -6.796875 L 1.890625 -6.796875 L 1.890625 -4.34375 L 5.203125 -4.34375 Z M 5.203125 -3.53125 "/></g></g></g><g fill="#ffffff" fill-opacity="1"><g transform="translate(179.346335, 123.436998)"><g><path d="M 6.15625 -6.796875 L 3.703125 -6.796875 L 3.703125 0 L 2.703125 0 L 2.703125 -6.796875 L 0.25 -6.796875 L 0.25 -7.625 L 6.15625 -7.625 Z M 6.15625 -6.796875 "/></g></g></g><g fill="#ffffff" fill-opacity="1"><g transform="translate(191.204427, 123.436998)"><g><path d="M 2.53125 -2.40625 L 2.671875 -1.40625 L 2.890625 -2.3125 L 4.40625 -7.625 L 5.25 -7.625 L 6.71875 -2.3125 L 6.9375 -1.390625 L 7.09375 -2.40625 L 8.28125 -7.625 L 9.296875 -7.625 L 7.4375 0 L 6.53125 0 L 4.953125 -5.5625 L 4.828125 -6.140625 L 4.71875 -5.5625 L 3.078125 0 L 2.171875 0 L 0.3125 -7.625 L 1.328125 -7.625 Z M 2.53125 -2.40625 "/></g></g></g><g fill="#ffffff" fill-opacity="1"><g transform="translate(206.179426, 123.436998)"><g><path d="M 6.75 -3.5625 C 6.75 -2.820312 6.625 -2.171875 6.375 -1.609375 C 6.125 -1.054688 5.769531 -0.628906 5.3125 -0.328125 C 4.851562 -0.0351562 4.3125 0.109375 3.6875 0.109375 C 3.09375 0.109375 2.5625 -0.0351562 2.09375 -0.328125 C 1.632812 -0.628906 1.273438 -1.050781 1.015625 -1.59375 C 0.753906 -2.144531 0.625 -2.78125 0.625 -3.5 L 0.625 -4.046875 C 0.625 -4.785156 0.75 -5.4375 1 -6 C 1.257812 -6.5625 1.617188 -6.988281 2.078125 -7.28125 C 2.546875 -7.582031 3.082031 -7.734375 3.6875 -7.734375 C 4.300781 -7.734375 4.835938 -7.582031 5.296875 -7.28125 C 5.765625 -6.988281 6.125 -6.5625 6.375 -6 C 6.625 -5.445312 6.75 -4.796875 6.75 -4.046875 Z M 5.75 -4.0625 C 5.75 -4.96875 5.566406 -5.660156 5.203125 -6.140625 C 4.847656 -6.628906 4.34375 -6.875 3.6875 -6.875 C 3.050781 -6.875 2.550781 -6.628906 2.1875 -6.140625 C 1.820312 -5.660156 1.632812 -4.988281 1.625 -4.125 L 1.625 -3.5625 C 1.625 -2.6875 1.804688 -2 2.171875 -1.5 C 2.535156 -1 3.039062 -0.75 3.6875 -0.75 C 4.34375 -0.75 4.847656 -0.984375 5.203125 -1.453125 C 5.554688 -1.929688 5.738281 -2.613281 5.75 -3.5 Z M 5.75 -4.0625 "/></g></g></g><g fill="#ffffff" fill-opacity="1"><g transform="translate(219.011866, 123.436998)"><g><path d="M 3.6875 -3.09375 L 1.890625 -3.09375 L 1.890625 0 L 0.875 0 L 0.875 -7.625 L 3.40625 -7.625 C 4.269531 -7.625 4.929688 -7.425781 5.390625 -7.03125 C 5.847656 -6.644531 6.078125 -6.078125 6.078125 -5.328125 C 6.078125 -4.859375 5.945312 -4.445312 5.6875 -4.09375 C 5.4375 -3.738281 5.082031 -3.472656 4.625 -3.296875 L 6.421875 -0.0625 L 6.421875 0 L 5.34375 0 Z M 1.890625 -3.90625 L 3.4375 -3.90625 C 3.9375 -3.90625 4.332031 -4.035156 4.625 -4.296875 C 4.925781 -4.554688 5.078125 -4.898438 5.078125 -5.328125 C 5.078125 -5.804688 4.9375 -6.171875 4.65625 -6.421875 C 4.375 -6.671875 3.96875 -6.796875 3.4375 -6.796875 L 1.890625 -6.796875 Z M 1.890625 -3.90625 "/></g></g></g><g fill="#ffffff" fill-opacity="1"><g transform="translate(231.074253, 123.436998)"><g><path d="M 2.828125 -3.546875 L 1.890625 -2.578125 L 1.890625 0 L 0.890625 0 L 0.890625 -7.625 L 1.890625 -7.625 L 1.890625 -3.859375 L 5.28125 -7.625 L 6.5 -7.625 L 3.5 -4.265625 L 6.734375 0 L 5.53125 0 Z M 2.828125 -3.546875 "/></g></g></g></svg>