<svg xmlns="http://www.w3.org/2000/svg" xmlns:xlink="http://www.w3.org/1999/xlink" width="463" zoomAndPan="magnify" viewBox="0 0 347.25 197.999996" height="264" preserveAspectRatio="xMidYMid meet" version="1.0"><defs><g/><clipPath id="dd7af99119"><path d="M 64.636719 77.625 L 284.109375 77.625 L 284.109375 103.1875 L 64.636719 103.1875 Z M 64.636719 77.625 " clip-rule="nonzero"/></clipPath></defs><path stroke-linecap="butt" transform="matrix(0.00181559, -0.748381, 0.748381, 0.00181559, 173.249472, 164.392772)" fill="none" stroke-linejoin="miter" d="M -0.00113278 0.50179 L 206.099898 0.497646 " stroke="#ffffff" stroke-width="1" stroke-opacity="1" stroke-miterlimit="4"/><g fill="#ffffff" fill-opacity="1"><g transform="translate(80.796003, 134.043871)"><g><path d="M 5.515625 -69.851562 C 5.515625 -39.703125 64.703125 -47.515625 64.703125 -19.851562 C 64.703125 -9.652344 54.132812 0.183594 40.714844 0.183594 C 18.839844 0.183594 6.800781 -21.691406 6.800781 -21.691406 L 5.882812 -21.691406 L 5.882812 -9.375 C 12.683594 -4.320312 23.4375 1.839844 35.570312 1.839844 C 56.800781 1.839844 70.035156 -10.84375 70.035156 -23.621094 C 70.035156 -55.789062 11.949219 -46.875 11.949219 -72.058594 C 11.949219 -82.257812 21.324219 -92.644531 38.417969 -92.644531 C 58.085938 -92.644531 63.691406 -77.203125 63.691406 -77.203125 L 64.613281 -77.203125 L 64.613281 -89.519531 C 57.535156 -91.910156 49.722656 -93.746094 38.417969 -93.746094 C 17.1875 -93.746094 5.515625 -82.625 5.515625 -69.851562 Z M 5.515625 -69.851562 "/></g></g></g><g fill="#ffffff" fill-opacity="1"><g transform="translate(183.267047, 134.043871)"><g><path d="M 2.757812 -91.910156 L 2.757812 -90.988281 C 10.660156 -90.988281 11.214844 -84.464844 11.214844 -66.359375 L 11.214844 -25.550781 C 11.214844 -7.445312 10.660156 -0.917969 2.757812 -0.917969 L 2.757812 0 L 27.574219 0 L 27.574219 -0.917969 C 19.667969 -0.917969 12.132812 -11.671875 12.132812 -38.417969 L 12.132812 -86.761719 L 70.308594 1.839844 L 71.230469 1.839844 L 71.230469 -66.359375 C 71.230469 -84.464844 71.78125 -90.988281 79.683594 -90.988281 L 79.683594 -91.910156 L 54.871094 -91.910156 L 54.871094 -90.988281 C 62.773438 -90.988281 70.308594 -80.238281 70.308594 -53.492188 L 70.308594 -13.417969 L 18.839844 -91.910156 Z M 2.757812 -91.910156 "/></g></g></g><g clip-path="url(#dd7af99119)"><path fill="#000000" d="M 64.636719 77.625 L 284.105469 77.625 L 284.105469 103.1875 L 64.636719 103.1875 Z M 64.636719 77.625 " fill-opacity="1" fill-rule="nonzero"/></g><g fill="#ffffff" fill-opacity="1"><g transform="translate(55.379085, 95.080897)"><g><path d="M 4.453125 0.09375 C 3.703125 0.09375 2.976562 -0.0234375 2.28125 -0.265625 C 1.59375 -0.515625 1.0625 -0.835938 0.6875 -1.234375 L 1.109375 -2.0625 C 1.472656 -1.695312 1.957031 -1.398438 2.5625 -1.171875 C 3.175781 -0.941406 3.804688 -0.828125 4.453125 -0.828125 C 5.359375 -0.828125 6.035156 -0.992188 6.484375 -1.328125 C 6.941406 -1.660156 7.171875 -2.09375 7.171875 -2.625 C 7.171875 -3.03125 7.046875 -3.351562 6.796875 -3.59375 C 6.554688 -3.832031 6.253906 -4.015625 5.890625 -4.140625 C 5.535156 -4.273438 5.039062 -4.421875 4.40625 -4.578125 C 3.644531 -4.773438 3.035156 -4.960938 2.578125 -5.140625 C 2.128906 -5.316406 1.738281 -5.585938 1.40625 -5.953125 C 1.082031 -6.328125 0.921875 -6.828125 0.921875 -7.453125 C 0.921875 -7.960938 1.054688 -8.425781 1.328125 -8.84375 C 1.597656 -9.269531 2.015625 -9.609375 2.578125 -9.859375 C 3.140625 -10.109375 3.835938 -10.234375 4.671875 -10.234375 C 5.242188 -10.234375 5.804688 -10.15625 6.359375 -10 C 6.921875 -9.84375 7.40625 -9.625 7.8125 -9.34375 L 7.453125 -8.484375 C 7.023438 -8.765625 6.566406 -8.972656 6.078125 -9.109375 C 5.597656 -9.253906 5.128906 -9.328125 4.671875 -9.328125 C 3.773438 -9.328125 3.101562 -9.15625 2.65625 -8.8125 C 2.207031 -8.46875 1.984375 -8.023438 1.984375 -7.484375 C 1.984375 -7.078125 2.101562 -6.75 2.34375 -6.5 C 2.59375 -6.257812 2.90625 -6.070312 3.28125 -5.9375 C 3.65625 -5.800781 4.15625 -5.660156 4.78125 -5.515625 C 5.53125 -5.328125 6.132812 -5.144531 6.59375 -4.96875 C 7.050781 -4.789062 7.4375 -4.519531 7.75 -4.15625 C 8.070312 -3.789062 8.234375 -3.300781 8.234375 -2.6875 C 8.234375 -2.164062 8.09375 -1.695312 7.8125 -1.28125 C 7.539062 -0.863281 7.117188 -0.53125 6.546875 -0.28125 C 5.984375 -0.03125 5.285156 0.09375 4.453125 0.09375 Z M 4.453125 0.09375 "/></g></g></g><g fill="#ffffff" fill-opacity="1"><g transform="translate(68.914035, 95.080897)"><g><path d="M 5.453125 -10.15625 C 6.742188 -10.15625 7.753906 -9.84375 8.484375 -9.21875 C 9.222656 -8.601562 9.59375 -7.753906 9.59375 -6.671875 C 9.59375 -5.585938 9.222656 -4.738281 8.484375 -4.125 C 7.753906 -3.507812 6.742188 -3.203125 5.453125 -3.203125 L 2.71875 -3.203125 L 2.71875 0 L 1.65625 0 L 1.65625 -10.15625 Z M 5.421875 -4.140625 C 6.429688 -4.140625 7.203125 -4.359375 7.734375 -4.796875 C 8.265625 -5.242188 8.53125 -5.867188 8.53125 -6.671875 C 8.53125 -7.492188 8.265625 -8.125 7.734375 -8.5625 C 7.203125 -9 6.429688 -9.21875 5.421875 -9.21875 L 2.71875 -9.21875 L 2.71875 -4.140625 Z M 5.421875 -4.140625 "/></g></g></g><g fill="#ffffff" fill-opacity="1"><g transform="translate(83.941265, 95.080897)"><g><path d="M 6.09375 0.09375 C 5.082031 0.09375 4.164062 -0.128906 3.34375 -0.578125 C 2.53125 -1.035156 1.894531 -1.65625 1.4375 -2.4375 C 0.976562 -3.21875 0.75 -4.097656 0.75 -5.078125 C 0.75 -6.054688 0.976562 -6.9375 1.4375 -7.71875 C 1.894531 -8.5 2.53125 -9.113281 3.34375 -9.5625 C 4.164062 -10.007812 5.082031 -10.234375 6.09375 -10.234375 C 7.09375 -10.234375 7.992188 -10.007812 8.796875 -9.5625 C 9.609375 -9.125 10.242188 -8.507812 10.703125 -7.71875 C 11.171875 -6.9375 11.40625 -6.054688 11.40625 -5.078125 C 11.40625 -4.097656 11.171875 -3.210938 10.703125 -2.421875 C 10.242188 -1.640625 9.609375 -1.023438 8.796875 -0.578125 C 7.992188 -0.128906 7.09375 0.09375 6.09375 0.09375 Z M 6.09375 -0.875 C 6.894531 -0.875 7.617188 -1.050781 8.265625 -1.40625 C 8.910156 -1.769531 9.414062 -2.273438 9.78125 -2.921875 C 10.15625 -3.566406 10.34375 -4.285156 10.34375 -5.078125 C 10.34375 -5.867188 10.15625 -6.582031 9.78125 -7.21875 C 9.414062 -7.863281 8.910156 -8.367188 8.265625 -8.734375 C 7.617188 -9.097656 6.894531 -9.28125 6.09375 -9.28125 C 5.289062 -9.28125 4.5625 -9.097656 3.90625 -8.734375 C 3.25 -8.367188 2.734375 -7.863281 2.359375 -7.21875 C 1.992188 -6.582031 1.8125 -5.867188 1.8125 -5.078125 C 1.8125 -4.285156 1.992188 -3.566406 2.359375 -2.921875 C 2.734375 -2.273438 3.25 -1.769531 3.90625 -1.40625 C 4.5625 -1.050781 5.289062 -0.875 6.09375 -0.875 Z M 6.09375 -0.875 "/></g></g></g><g fill="#ffffff" fill-opacity="1"><g transform="translate(100.721571, 95.080897)"><g><path d="M 8.578125 0 L 6.265625 -3.265625 C 6.003906 -3.234375 5.734375 -3.21875 5.453125 -3.21875 L 2.71875 -3.21875 L 2.71875 0 L 1.65625 0 L 1.65625 -10.15625 L 5.453125 -10.15625 C 6.742188 -10.15625 7.753906 -9.84375 8.484375 -9.21875 C 9.222656 -8.601562 9.59375 -7.753906 9.59375 -6.671875 C 9.59375 -5.878906 9.390625 -5.207031 8.984375 -4.65625 C 8.585938 -4.113281 8.019531 -3.722656 7.28125 -3.484375 L 9.765625 0 Z M 5.421875 -4.125 C 6.429688 -4.125 7.203125 -4.347656 7.734375 -4.796875 C 8.265625 -5.242188 8.53125 -5.867188 8.53125 -6.671875 C 8.53125 -7.492188 8.265625 -8.125 7.734375 -8.5625 C 7.203125 -9 6.429688 -9.21875 5.421875 -9.21875 L 2.71875 -9.21875 L 2.71875 -4.125 Z M 5.421875 -4.125 "/></g></g></g><g fill="#ffffff" fill-opacity="1"><g transform="translate(115.821246, 95.080897)"><g><path d="M 3.625 -9.21875 L 0.0625 -9.21875 L 0.0625 -10.15625 L 8.265625 -10.15625 L 8.265625 -9.21875 L 4.703125 -9.21875 L 4.703125 0 L 3.625 0 Z M 3.625 -9.21875 "/></g></g></g><g fill="#ffffff" fill-opacity="1"><g transform="translate(128.76218, 95.080897)"><g><path d="M 4.453125 0.09375 C 3.703125 0.09375 2.976562 -0.0234375 2.28125 -0.265625 C 1.59375 -0.515625 1.0625 -0.835938 0.6875 -1.234375 L 1.109375 -2.0625 C 1.472656 -1.695312 1.957031 -1.398438 2.5625 -1.171875 C 3.175781 -0.941406 3.804688 -0.828125 4.453125 -0.828125 C 5.359375 -0.828125 6.035156 -0.992188 6.484375 -1.328125 C 6.941406 -1.660156 7.171875 -2.09375 7.171875 -2.625 C 7.171875 -3.03125 7.046875 -3.351562 6.796875 -3.59375 C 6.554688 -3.832031 6.253906 -4.015625 5.890625 -4.140625 C 5.535156 -4.273438 5.039062 -4.421875 4.40625 -4.578125 C 3.644531 -4.773438 3.035156 -4.960938 2.578125 -5.140625 C 2.128906 -5.316406 1.738281 -5.585938 1.40625 -5.953125 C 1.082031 -6.328125 0.921875 -6.828125 0.921875 -7.453125 C 0.921875 -7.960938 1.054688 -8.425781 1.328125 -8.84375 C 1.597656 -9.269531 2.015625 -9.609375 2.578125 -9.859375 C 3.140625 -10.109375 3.835938 -10.234375 4.671875 -10.234375 C 5.242188 -10.234375 5.804688 -10.15625 6.359375 -10 C 6.921875 -9.84375 7.40625 -9.625 7.8125 -9.34375 L 7.453125 -8.484375 C 7.023438 -8.765625 6.566406 -8.972656 6.078125 -9.109375 C 5.597656 -9.253906 5.128906 -9.328125 4.671875 -9.328125 C 3.773438 -9.328125 3.101562 -9.15625 2.65625 -8.8125 C 2.207031 -8.46875 1.984375 -8.023438 1.984375 -7.484375 C 1.984375 -7.078125 2.101562 -6.75 2.34375 -6.5 C 2.59375 -6.257812 2.90625 -6.070312 3.28125 -5.9375 C 3.65625 -5.800781 4.15625 -5.660156 4.78125 -5.515625 C 5.53125 -5.328125 6.132812 -5.144531 6.59375 -4.96875 C 7.050781 -4.789062 7.4375 -4.519531 7.75 -4.15625 C 8.070312 -3.789062 8.234375 -3.300781 8.234375 -2.6875 C 8.234375 -2.164062 8.09375 -1.695312 7.8125 -1.28125 C 7.539062 -0.863281 7.117188 -0.53125 6.546875 -0.28125 C 5.984375 -0.03125 5.285156 0.09375 4.453125 0.09375 Z M 4.453125 0.09375 "/></g></g></g><g fill="#ffffff" fill-opacity="1"><g transform="translate(142.297131, 95.080897)"><g/></g></g><g fill="#ffffff" fill-opacity="1"><g transform="translate(150.717731, 95.080897)"><g><path d="M 1.65625 -10.15625 L 2.71875 -10.15625 L 2.71875 0 L 1.65625 0 Z M 1.65625 -10.15625 "/></g></g></g><g fill="#ffffff" fill-opacity="1"><g transform="translate(159.717867, 95.080897)"><g><path d="M 10.140625 -10.15625 L 10.140625 0 L 9.25 0 L 2.71875 -8.234375 L 2.71875 0 L 1.65625 0 L 1.65625 -10.15625 L 2.53125 -10.15625 L 9.078125 -1.90625 L 9.078125 -10.15625 Z M 10.140625 -10.15625 "/></g></g></g><g fill="#ffffff" fill-opacity="1"><g transform="translate(176.121486, 95.080897)"><g/></g></g><g fill="#ffffff" fill-opacity="1"><g transform="translate(184.542081, 95.080897)"><g><path d="M 10.140625 -10.15625 L 10.140625 0 L 9.25 0 L 2.71875 -8.234375 L 2.71875 0 L 1.65625 0 L 1.65625 -10.15625 L 2.53125 -10.15625 L 9.078125 -1.90625 L 9.078125 -10.15625 Z M 10.140625 -10.15625 "/></g></g></g><g fill="#ffffff" fill-opacity="1"><g transform="translate(200.9457, 95.080897)"><g><path d="M 8.828125 -0.921875 L 8.828125 0 L 1.65625 0 L 1.65625 -10.15625 L 8.609375 -10.15625 L 8.609375 -9.21875 L 2.71875 -9.21875 L 2.71875 -5.609375 L 7.96875 -5.609375 L 7.96875 -4.703125 L 2.71875 -4.703125 L 2.71875 -0.921875 Z M 8.828125 -0.921875 "/></g></g></g><g fill="#ffffff" fill-opacity="1"><g transform="translate(215.263012, 95.080897)"><g><path d="M 3.625 -9.21875 L 0.0625 -9.21875 L 0.0625 -10.15625 L 8.265625 -10.15625 L 8.265625 -9.21875 L 4.703125 -9.21875 L 4.703125 0 L 3.625 0 Z M 3.625 -9.21875 "/></g></g></g><g fill="#ffffff" fill-opacity="1"><g transform="translate(228.203942, 95.080897)"><g><path d="M 15.59375 -10.15625 L 12.171875 0 L 11.03125 0 L 8.0625 -8.65625 L 5.078125 0 L 3.953125 0 L 0.53125 -10.15625 L 1.640625 -10.15625 L 4.5625 -1.421875 L 7.59375 -10.15625 L 8.59375 -10.15625 L 11.578125 -1.375 L 14.5625 -10.15625 Z M 15.59375 -10.15625 "/></g></g></g><g fill="#ffffff" fill-opacity="1"><g transform="translate(248.92504, 95.080897)"><g><path d="M 6.09375 0.09375 C 5.082031 0.09375 4.164062 -0.128906 3.34375 -0.578125 C 2.53125 -1.035156 1.894531 -1.65625 1.4375 -2.4375 C 0.976562 -3.21875 0.75 -4.097656 0.75 -5.078125 C 0.75 -6.054688 0.976562 -6.9375 1.4375 -7.71875 C 1.894531 -8.5 2.53125 -9.113281 3.34375 -9.5625 C 4.164062 -10.007812 5.082031 -10.234375 6.09375 -10.234375 C 7.09375 -10.234375 7.992188 -10.007812 8.796875 -9.5625 C 9.609375 -9.125 10.242188 -8.507812 10.703125 -7.71875 C 11.171875 -6.9375 11.40625 -6.054688 11.40625 -5.078125 C 11.40625 -4.097656 11.171875 -3.210938 10.703125 -2.421875 C 10.242188 -1.640625 9.609375 -1.023438 8.796875 -0.578125 C 7.992188 -0.128906 7.09375 0.09375 6.09375 0.09375 Z M 6.09375 -0.875 C 6.894531 -0.875 7.617188 -1.050781 8.265625 -1.40625 C 8.910156 -1.769531 9.414062 -2.273438 9.78125 -2.921875 C 10.15625 -3.566406 10.34375 -4.285156 10.34375 -5.078125 C 10.34375 -5.867188 10.15625 -6.582031 9.78125 -7.21875 C 9.414062 -7.863281 8.910156 -8.367188 8.265625 -8.734375 C 7.617188 -9.097656 6.894531 -9.28125 6.09375 -9.28125 C 5.289062 -9.28125 4.5625 -9.097656 3.90625 -8.734375 C 3.25 -8.367188 2.734375 -7.863281 2.359375 -7.21875 C 1.992188 -6.582031 1.8125 -5.867188 1.8125 -5.078125 C 1.8125 -4.285156 1.992188 -3.566406 2.359375 -2.921875 C 2.734375 -2.273438 3.25 -1.769531 3.90625 -1.40625 C 4.5625 -1.050781 5.289062 -0.875 6.09375 -0.875 Z M 6.09375 -0.875 "/></g></g></g><g fill="#ffffff" fill-opacity="1"><g transform="translate(265.705341, 95.080897)"><g><path d="M 8.578125 0 L 6.265625 -3.265625 C 6.003906 -3.234375 5.734375 -3.21875 5.453125 -3.21875 L 2.71875 -3.21875 L 2.71875 0 L 1.65625 0 L 1.65625 -10.15625 L 5.453125 -10.15625 C 6.742188 -10.15625 7.753906 -9.84375 8.484375 -9.21875 C 9.222656 -8.601562 9.59375 -7.753906 9.59375 -6.671875 C 9.59375 -5.878906 9.390625 -5.207031 8.984375 -4.65625 C 8.585938 -4.113281 8.019531 -3.722656 7.28125 -3.484375 L 9.765625 0 Z M 5.421875 -4.125 C 6.429688 -4.125 7.203125 -4.347656 7.734375 -4.796875 C 8.265625 -5.242188 8.53125 -5.867188 8.53125 -6.671875 C 8.53125 -7.492188 8.265625 -8.125 7.734375 -8.5625 C 7.203125 -9 6.429688 -9.21875 5.421875 -9.21875 L 2.71875 -9.21875 L 2.71875 -4.125 Z M 5.421875 -4.125 "/></g></g></g><g fill="#ffffff" fill-opacity="1"><g transform="translate(280.805021, 95.080897)"><g><path d="M 4.796875 -4.765625 L 2.71875 -2.671875 L 2.71875 0 L 1.65625 0 L 1.65625 -10.15625 L 2.71875 -10.15625 L 2.71875 -4.015625 L 8.6875 -10.15625 L 9.921875 -10.15625 L 5.53125 -5.546875 L 10.21875 0 L 8.953125 0 Z M 4.796875 -4.765625 "/></g></g></g></svg>